<?xml version="1.0" encoding="utf-8"?>
<svg width="800px" height="600px"
     xmlns="http://www.w3.org/2000/svg"
     xmlns:xhtml="http://www.w3.org/1999/xhtml"
     xmlns:xlink="http://www.w3.org/1999/xlink"
     xmlns:a="http://www.adobe.com/svg10-extensions" a:timeline="independent">
     

  <defs>
  <g  id = "good_thing" transform = "scale(0.1)">
    <g>
  	<polygon style="fill:#FFD311;" points="376.301,167.33 440.424,167.33 440.424,199.391 360.27,199.391 360.27,167.33 	"/>
  	<rect x="360.273" y="199.391" style="fill:#FFD311;" width="80.154" height="32.062"/>
  	<rect x="280.117" y="199.391" style="fill:#FFD311;" width="80.154" height="32.062"/>
  	<polygon style="fill:#FFD311;" points="296.146,167.33 360.27,167.33 360.27,199.391 280.115,199.391 280.115,167.33 	"/>
  	<polygon style="fill:#FFD311;" points="376.301,135.268 376.301,167.33 360.27,167.33 296.146,167.33 296.146,135.268 	"/>
  	<polygon style="fill:#FFD311;" points="280.115,103.206 280.115,135.268 215.992,135.268 199.961,135.268 199.961,103.206 	"/>
  	<polygon style="fill:#FFD311;" points="296.146,135.268 296.146,167.33 280.115,167.33 215.992,167.33 215.992,135.268 
  		280.115,135.268 	"/>
  	<polygon style="fill:#FFD311;" points="280.115,167.33 280.115,199.391 199.961,199.391 199.961,167.33 215.992,167.33 	"/>
  	<rect x="199.962" y="199.391" style="fill:#FFD311;" width="80.154" height="32.062"/>
  	<polygon style="fill:#FFD311;" points="151.869,199.391 151.869,231.453 71.714,231.453 71.714,199.391 87.745,199.391 	"/>
  	<polygon style="fill:#FFD311;" points="167.899,167.33 167.899,199.391 151.869,199.391 87.745,199.391 87.745,167.33 
  		151.869,167.33 	"/>
  	<polygon style="fill:#FFD311;" points="151.869,135.268 151.869,167.33 87.745,167.33 71.714,167.33 71.714,135.268 
  		87.745,135.268 	"/>
  	<polygon style="fill:#FFD311;" points="167.899,103.206 167.899,135.268 151.869,135.268 87.745,135.268 87.745,103.206 	"/>
    </g>
    <path style="fill:#754C29;" d="M167.899,135.268v-32.062H87.745v32.062H71.714v32.062h16.031v32.062H71.714v32.062H39.652V46.777
  	c0,0,0-7.695,7.855-7.695s417.123,0,417.123,0s7.855,0,7.855,7.695s0,184.676,0,184.676h-32.062v-32.062v-32.062h-64.123v-32.062
  	h-80.154h-16.031v-32.062h-80.154v32.062h16.031v32.062h-16.031v32.062v32.062h-48.092v-32.062H167.9v-32.062h-16.031v-32.062
  	L167.899,135.268L167.899,135.268z"/>
    <path style="fill:#E7ECED;" d="M296.146,311.607c0,16.431-9.939,30.539-24.047,36.711v59.474h-32.062v-59.474
  	c-14.108-6.172-24.047-20.279-24.047-36.711c0-22.122,17.954-40.078,40.078-40.078C278.192,271.53,296.146,289.485,296.146,311.607z
  	"/>
    <g>
  	<polygon style="fill:#C49A6C;" points="504.548,463.9 504.548,503.978 7.59,503.978 7.59,463.9 39.652,463.9 464.47,463.9 	"/>
  	<path style="fill:#C49A6C;" d="M7.59,231.453h32.062h32.062h80.154h48.092h80.154h80.154h80.154h32.062h32.062v232.448H464.47
  		V311.607H296.146c0-22.122-17.954-40.078-40.077-40.078c-22.123,0-40.078,17.954-40.078,40.078H39.652V463.9H7.59V231.453z"/>
    </g>
    <g>
  	<path style="fill:#8B5E3C;" d="M464.47,311.607V463.9H39.652V311.607h176.34c0,16.431,9.939,30.539,24.047,36.711v59.474h32.062
  		v-59.474c14.108-6.172,24.047-20.279,24.047-36.711H464.47z"/>
  	<path style="fill:#8B5E3C;" d="M504.548,23.051v208.402h-32.062c0,0,0-176.98,0-184.676s-7.855-7.695-7.855-7.695
  		s-409.268,0-417.123,0s-7.855,7.695-7.855,7.695v184.676H7.59V23.051c0-8.817,7.214-16.031,16.031-16.031h464.896
  		C497.334,7.02,504.548,14.235,504.548,23.051z"/>
    </g>
    <g>
  	<rect x="247.987" y="304.587" style="fill:#231F20;" width="16.031" height="15.042"/>
  	<rect x="175.844" y="264.514" style="fill:#231F20;" width="16.03" height="15.042"/>
  	<rect x="320.12" y="264.514" style="fill:#231F20;" width="16.03" height="15.042"/>
    </g>
    <polygon style="fill:#FFFFFF;" points="64.123,384.247 79.165,384.247 79.165,351.692 111.722,351.692 111.722,336.65 
  	64.123,336.65 "/>
    <g>
  	<rect x="64.123" y="400.275" style="fill:#231F20;" width="15.042" height="16.03"/>
  	<rect x="424.323" y="336.647" style="fill:#231F20;" width="16.03" height="15.042"/>
    </g>
    <g>
  	<rect x="392.262" y="336.647" style="fill:#FFFFFF;" width="16.03" height="15.042"/>
  	<rect x="424.323" y="368.707" style="fill:#FFFFFF;" width="16.03" height="15.042"/>
    </g>
    <path style="fill:#231F20;" d="M488.448,0.001H23.551C10.565,0.001,0,10.566,0,23.553V512h512V23.553
  	C512,10.566,501.434,0.001,488.448,0.001z M496.958,496.958H15.042v-25.034h481.915V496.958z M242.984,341.93
  	c-11.87-5.194-19.54-16.9-19.54-29.821c0-17.95,14.605-32.555,32.556-32.555c17.951,0,32.557,14.604,32.557,32.555
  	c0,12.922-7.67,24.628-19.54,29.821l-4.507,1.972v56.872h-17.02v-56.872L242.984,341.93z M232.447,353.449v47.323h-48.587v15.042
  	h144.278v-15.042h-48.588v-47.323c12.571-7.161,21.152-19.642,23.425-33.82H456.88v137.252H47.104V319.629h161.92
  	C211.296,333.806,219.876,346.288,232.447,353.449z M496.958,264.511H352.185v15.042h144.772v177.328h-25.035V304.587H302.999
  	c-3.617-22.684-23.313-40.077-46.998-40.077s-43.382,17.393-46.999,40.077H32.062v152.294h-17.02V279.552h144.772V264.51H15.042
  	v-25.035h481.915V264.511z M383.753,160.309v-32.062h-96.185V96.186h-95.197v47.104h16.03v17.02h-16.03v64.123H159.32v-17.02h16.031
  	v-47.104H159.32v-17.02h16.031V96.186H80.153v32.062h-16.03v47.104h16.03v17.02h-16.03v32.062H47.104V47.279
  	c0-0.001,0.025-0.075,0.057-0.164c0.075-0.006,0.167-0.01,0.277-0.01h417.123c0.002,0,0.165,0.04,0.333,0.09
  	c0.001,0.026,0.001,0.055,0.001,0.084v177.154h-17.02V160.31h-64.123V160.309z M207.413,192.371v-17.02h65.112v17.02H207.413z
  	 M272.525,207.413v17.02h-65.112v-17.02H272.525z M223.443,160.309v-17.02h65.113v17.02H223.443z M207.413,128.248v-17.02h65.112
  	v17.02H207.413z M287.567,207.413h65.113v17.02h-65.113V207.413z M287.567,192.371v-17.02h0.989h64.123v17.02H287.567z
  	 M303.598,160.309v-17.02h65.112v17.02H303.598z M367.723,207.413h65.112v17.02h-65.112L367.723,207.413L367.723,207.413z
  	 M367.723,192.371v-17.02h65.112v17.02H367.723z M144.277,143.29v17.02H79.165v-17.02H144.277z M95.197,128.248v-17.02h65.113v17.02
  	H95.197z M95.197,192.371v-17.02h65.113v17.02H95.197z M144.277,207.413v17.02H79.165v-17.02H144.277z M496.958,224.433h-17.02
  	V47.279c0-9.883-7.922-15.217-15.376-15.217H47.438c-9.987,0-15.376,7.84-15.376,15.217v177.154h-17.02V23.553
  	c0-4.692,3.818-8.51,8.509-8.51h464.897c4.692,0,8.509,3.818,8.509,8.51v200.881H496.958z"/>
    <polygon style="fill:#FFFFFF;" points="432.833,103.707 447.876,103.707 447.876,64.124 400.277,64.124 400.277,79.166 
  	432.833,79.166 "/>
    <rect x="432.836" y="119.737" style="fill:#231F20;" width="15.042" height="16.03"/>
    <rect x="63.629" y="64.124" style="fill:#FFFFFF;" width="16.031" height="15.042"/>
    </g>
  <g id = "treasure">
  	<use xlink:href ="#good_thing" transform ="scale(0.6)"/>
  </g>
  <clipPath id="gameareaclip">
      <rect x="20" y="20" width="600" height="560"/>
  </clipPath>
  <pattern id="background_pattern" x="0" y="0" width="80" height="80" patternUnits="userSpaceOnUse">
      <rect width="80" height="80" style="fill:gray"/>
      <use xlink:href = "#good_thing"/>
  </pattern>
  <pattern id ="platform_pattern" x ="0" y ="0" width="20" height="20" patternUnits="userSpaceOnUse">
  <rect width="20" height="20" style="fill:gray"/>
    <g transform = "scale(0.04)">
    <g>
  	<rect x="174.22" y="351.671" style="fill:#E05841;" width="163.56" height="107"/>
  	<rect x="10.667" y="53.33" style="fill:#E05841;" width="237.16" height="101.33"/>
    </g>
    <rect x="247.82" y="53.33" style="fill:#D14841;" width="163.56" height="101.33"/>
    <g>
  	<rect x="411.38" y="53.33" style="fill:#E05841;" width="89.95" height="101.33"/>
  	<rect x="10.667" y="154.67" style="fill:#E05841;" width="168.67" height="101.33"/>
  	<rect x="174.22" y="154.67" style="fill:#E05841;" width="163.56" height="101.33"/>
    </g>
    <g>
  	<rect x="337.78" y="154.67" style="fill:#D14841;" width="163.56" height="101.33"/>
  	<rect x="10.667" y="256" style="fill:#D14841;" width="237.16" height="101.33"/>
    </g>
    <g>
  	<rect x="247.82" y="256" style="fill:#E05841;" width="163.56" height="101.33"/>
  	<rect x="411.38" y="256" style="fill:#E05841;" width="89.95" height="101.33"/>
    </g>
    <rect x="10.667" y="53.33" style="fill:#D14841;" width="89.95" height="101.33"/>
    <rect x="10.667" y="256" style="fill:#E05841;" width="89.95" height="101.33"/>
    <g>
  	<rect x="10.667" y="357.33" style="fill:#D14841;" width="163.56" height="101.33"/>
  	<rect x="337.78" y="357.33" style="fill:#D14841;" width="163.56" height="101.33"/>
    </g>
    <g>
  	<path style="fill:#231F20;" d="M501.333,42.667H10.667C4.777,42.667,0,47.442,0,53.333v405.333c0,5.891,4.777,10.667,10.667,10.667
  		h490.667c5.89,0,10.667-4.775,10.667-10.667V53.333C512,47.442,507.224,42.667,501.333,42.667z M184.889,245.333v-15.289
  		c0-5.891-4.777-10.667-10.667-10.667s-10.667,4.775-10.667,10.667v15.289H21.333v-80H327.11v80L184.889,245.333L184.889,245.333z
  		 M237.155,346.667H111.289v-80h125.867v80H237.155z M21.333,266.667h68.622v80H21.333V266.667z M348.444,165.333h142.223v80
  		H348.444V165.333z M422.044,266.667h68.623v80h-68.623V266.667L422.044,266.667z M490.667,144h-68.623V64h68.623V144z M400.71,144
  		H258.489V64H400.71V144z M237.155,144H111.289V64h125.867v80H237.155z M21.333,64h68.622v80H21.333V64z M21.333,368h142.222v80
  		H21.333V368z M184.889,368h62.933c5.89,0,10.667-4.775,10.667-10.667v-90.667H400.71v80h-78.044
  		c-5.89,0-10.667,4.775-10.667,10.667S316.777,368,322.667,368h4.444v80H184.889V368z M490.667,448H348.444v-80h142.223V448z"/>
  	<path style="fill:#231F20;" d="M287.11,346.667h-1.067c-5.89,0-10.667,4.775-10.667,10.667S280.154,368,286.044,368h1.067
  		c5.89,0,10.667-4.775,10.667-10.667S293.001,346.667,287.11,346.667z"/>
  	<path style="fill:#231F20;" d="M174.222,182.4c-5.89,0-10.667,4.775-10.667,10.667v1.067c0,5.891,4.777,10.667,10.667,10.667
  		s10.667-4.775,10.667-10.667v-1.067C184.889,187.175,180.112,182.4,174.222,182.4z"/>
    </g>
    </g>
  </pattern>
  <radialGradient id="player_color">
      <stop offset="0.0" style="stop-color:yellow;stop-opacity:1"/>
      <stop offset="0.8" style="stop-color:yellow;stop-opacity:1"/>
      <stop offset="1.0" style="stop-color:orange;stop-opacity:1"/>
  </radialGradient>
  <linearGradient id="bckgcolor" x1="0%" y1="0%" x2="0%" y2="100%">
    	<stop offset="0" style= "stop-color:brown"/>
    	<stop offset="0.8" style= "stop-color:dark red"/>
   	<stop offset="1" style= "stop-color:black"/>
  </linearGradient>
  
  
  

  
  <g id="monster">
  
  <animateTransform type="scale" attributeName="transform" attributeType="XML" dur="5s" values="1;1.2;1" repeatCount="indefinite"/>
  <g id = "mbody"  transform="translate(-7,-8)	 scale(0.1)">
  
  <path style="fill:#00838F;" d="M401.067,204.8c0,0.939,0,1.963-0.085,2.901c-0.666,17.331-6.323,34.108-16.299,48.299
  	c-0.939-1.365-1.877-2.731-2.901-4.011c-0.265-0.384-0.546-0.759-0.853-1.109c-0.341-0.427-0.683-0.939-1.024-1.365
  	c-0.341-0.341-0.597-0.768-0.939-1.109c-1.109-1.451-2.389-2.816-3.669-4.267c-1.109-1.28-2.304-2.475-3.499-3.669
  	c-2.927-2.995-6.007-5.845-9.216-8.533c-0.094-0.102-0.213-0.196-0.341-0.256c-1.801-1.545-3.686-2.995-5.632-4.352
  	c-0.41-0.341-0.836-0.657-1.28-0.939c-2.475-1.792-5.035-3.584-7.68-5.205c-2.304-1.451-4.523-2.731-6.997-4.096
  	c-4.813-2.637-9.771-5.001-14.848-7.083c-0.666-0.324-1.348-0.606-2.048-0.853v-0.085h-0.171c-0.068-0.119-0.205-0.188-0.341-0.171
  	c-0.427-0.171-0.939-0.341-1.365-0.512c-2.389-0.939-4.779-1.877-7.168-2.645c-2.987-1.024-5.888-1.877-8.96-2.731
  	c-0.597-0.171-1.109-0.341-1.707-0.512h-0.085c-0.512-0.085-0.939-0.256-1.451-0.341c-0.171-0.085-0.341-0.085-0.512-0.171
  	c-0.068-0.068-0.162-0.094-0.256-0.085c-0.188-0.068-0.393-0.102-0.597-0.085c-0.068-0.068-0.162-0.094-0.256-0.085h-0.171v-0.085
  	h-0.256c-0.171,0-0.256-0.085-0.427-0.085c-0.717-0.247-1.459-0.427-2.219-0.512c-0.512-0.085-1.024-0.256-1.536-0.341
  	c-1.109-0.256-2.219-0.512-3.413-0.683c-0.717-0.247-1.459-0.427-2.219-0.512c-0.162-0.068-0.341-0.102-0.512-0.085h-0.171
  	c-0.333-0.102-0.674-0.154-1.024-0.171c-0.777-0.256-1.579-0.435-2.389-0.512h-0.256c-0.649-0.154-1.306-0.273-1.963-0.341
  	c-0.503-0.102-1.024-0.154-1.536-0.171c-1.877-0.341-3.755-0.597-5.717-0.768c-2.901-0.341-5.803-0.597-8.704-0.768
  	c-0.939-0.085-1.792-0.171-2.731-0.171c-3.157-0.171-6.4-0.256-9.643-0.256c-3.157,0-6.315,0.085-9.387,0.256
  	c-0.768,0-1.451,0.085-2.219,0.085c-0.119-0.009-0.239,0.017-0.341,0.085c-0.171-0.085-0.256,0-0.427,0h-0.085l-3.072,0.256
  	c-0.521-0.026-1.041,0.026-1.536,0.171c-0.085,0-0.085-0.085-0.171,0c-0.085-0.085-0.085-0.085-0.171,0
  	c-0.085-0.085-0.085,0-0.171,0h-0.341l-0.085,0.085h-0.341c-2.219,0.256-4.352,0.512-6.485,0.768
  	c-0.205-0.017-0.41,0.017-0.597,0.085c-0.256-0.06-0.529-0.026-0.768,0.085c-2.27,0.239-4.514,0.606-6.741,1.109
  	c-0.657,0.068-1.314,0.188-1.963,0.341c-0.41,0-0.819,0.094-1.195,0.256c-0.375,0.017-0.751,0.068-1.109,0.171
  	c-0.777,0.102-1.545,0.247-2.304,0.427c-0.043,0-0.085,0.034-0.085,0.085l0,0h-0.256l-0.085,0.085h-0.085
  	c-0.085-0.085-0.085,0-0.171,0h-0.085c-0.043,0-0.085,0.034-0.085,0.085l0,0h-0.427l-0.085,0.085h-0.341
  	c-0.085,0.085-0.085,0.085-0.171,0.085c-1.963,0.427-3.84,0.853-5.717,1.365c-0.939,0.256-1.792,0.512-2.645,0.768
  	c-0.273,0.009-0.546,0.094-0.768,0.256c-1.792,0.427-3.584,1.024-5.376,1.621c-1.425,0.367-2.816,0.819-4.181,1.365
  	c-0.205,0.017-0.41,0.077-0.597,0.171c-1.963,0.683-3.84,1.365-5.632,2.133c-0.589,0.179-1.161,0.401-1.707,0.683
  	c-0.444,0.162-0.87,0.367-1.28,0.597c-0.247,0.009-0.486,0.094-0.683,0.256h-0.085c-1.451,0.597-2.901,1.195-4.267,1.877
  	c-0.512,0.171-0.939,0.427-1.365,0.597c-0.256,0.171-0.597,0.256-0.853,0.427c-0.043,0-0.085,0.034-0.085,0.085l0,0h-0.085
  	c-0.256,0.085-0.427,0.256-0.683,0.341l-0.512,0.256c-0.273,0.077-0.529,0.196-0.768,0.341c-0.171,0.085-0.256,0.085-0.341,0.171
  	c-0.085,0-0.171,0.085-0.256,0.171c-0.273,0.111-0.529,0.256-0.768,0.427c-1.451,0.683-2.901,1.451-4.352,2.219
  	c-0.273,0.111-0.529,0.256-0.768,0.427c-0.085,0-0.171,0-0.171,0.085c-1.536,0.853-3.072,1.792-4.608,2.731
  	c-1.007,0.538-1.971,1.135-2.901,1.792c-0.751,0.393-1.459,0.853-2.133,1.365c-0.256,0.171-0.512,0.427-0.768,0.597
  	c-0.316,0.102-0.614,0.282-0.853,0.512c-1.92,1.229-3.772,2.569-5.547,4.011c-0.666,0.427-1.297,0.913-1.877,1.451
  	c-0.239,0.154-0.469,0.324-0.683,0.512c-1.331,0.956-2.586,2.014-3.755,3.157c-0.555,0.375-1.067,0.802-1.536,1.28
  	c-0.683,0.597-1.365,1.195-2.048,1.877c-0.512,0.427-1.024,0.939-1.536,1.451c-0.768,0.768-1.536,1.451-2.219,2.219
  	c-0.333,0.29-0.649,0.606-0.939,0.939c-0.341,0.341-0.683,0.768-1.024,1.109c-0.691,0.623-1.323,1.306-1.877,2.048
  	c-0.367,0.375-0.708,0.777-1.024,1.195c-1.152,1.186-2.236,2.441-3.243,3.755c-0.171,0.171-0.341,0.427-0.512,0.597
  	c-1.451,1.963-2.901,3.925-4.267,5.888c-5.12-7.415-9.165-15.522-12.032-24.064c0-0.171-0.085-0.256-0.085-0.341
  	c-0.427-1.28-0.768-2.475-1.109-3.755c-0.085-0.171-0.085-0.341-0.171-0.512c-0.341-1.365-0.683-2.731-0.939-4.181
  	c-0.802-3.396-1.348-6.844-1.621-10.325c-0.171-1.442-0.256-2.901-0.256-4.352c-0.068-0.247-0.102-0.512-0.085-0.768
  	c-0.085-0.939-0.085-1.963-0.085-2.901c0-1.963,0.085-3.84,0.256-5.803c0.017-0.802,0.068-1.596,0.171-2.389
  	c0.171-1.707,0.427-3.328,0.683-5.035c0.119-1.203,0.316-2.406,0.597-3.584c0.256-1.365,0.512-2.731,0.853-4.096
  	c0.427-1.536,0.853-3.157,1.28-4.693c0.085-0.085,0.085-0.171,0.171-0.256c0.512-1.621,1.024-3.243,1.621-4.864
  	c0.427-1.109,0.853-2.304,1.365-3.413c0-0.085,0.085-0.171,0.085-0.256c0.512-1.109,1.024-2.304,1.621-3.413
  	c0.913-2.116,1.971-4.164,3.157-6.144c0.256-0.512,0.512-0.939,0.768-1.365c0.683-1.109,1.28-2.219,2.048-3.243
  	c0.853-1.451,1.792-2.816,2.731-4.181c0.853-1.195,1.707-2.304,2.645-3.499c0.939-1.28,1.963-2.56,3.072-3.84
  	c1.024-1.195,2.048-2.389,3.157-3.584c1.28-1.451,2.645-2.901,4.096-4.267c0.768-0.768,1.536-1.536,2.389-2.304
  	c2.731-2.475,5.547-4.949,8.619-7.339c0.427-0.341,0.939-0.768,1.451-1.109c0.085-0.085,0.171-0.171,0.256-0.171
  	c1.451-1.109,2.901-2.219,4.437-3.243c1.707-1.195,3.499-2.389,5.291-3.499c1.792-1.109,3.584-2.219,5.461-3.243
  	c1.707-1.024,3.499-1.963,5.291-2.901c0.913-0.538,1.852-1.015,2.816-1.451c1.536-0.768,3.072-1.536,4.693-2.219
  	c1.621-0.768,3.243-1.451,4.864-2.133c4.608-1.877,9.301-3.584,14.165-5.12c1.425-0.503,2.876-0.93,4.352-1.28
  	c1.963-0.597,3.84-1.109,5.803-1.536c2.645-0.683,5.291-1.28,7.936-1.792c3.584-0.768,7.253-1.365,10.923-1.877
  	c1.28-0.171,2.56-0.341,3.84-0.512c1.707-0.171,3.499-0.341,5.205-0.512c1.024-0.085,2.133-0.171,3.157-0.256
  	c2.048-0.171,4.181-0.256,6.229-0.341c2.475-0.085,5.035-0.171,7.509-0.171c64.597,0,119.296,32.256,138.069,76.8
  	C398.66,181.461,401.033,193.067,401.067,204.8z"/>
  <path style="fill:#00BCD4;" d="M366.933,204.8c-0.026,9.216-1.493,18.372-4.352,27.136c-2.867,8.542-6.912,16.649-12.032,24.064
  	c-21.675-31.829-62.976-54.613-111.616-58.88c-0.085,0-0.085-0.085-0.171,0c-0.085-0.085-0.085-0.085-0.171,0
  	c-0.085-0.085-0.085,0-0.171,0h-0.256c-0.102-0.068-0.222-0.102-0.341-0.085c-1.212-0.171-2.441-0.256-3.669-0.256
  	c-1.109-0.171-2.304-0.256-3.413-0.341c-2.901-0.085-5.888-0.171-8.875-0.171c-38.571-0.717-76.211,11.878-106.581,35.669
  	c0-0.171-0.085-0.256-0.085-0.341c-0.427-1.28-0.768-2.475-1.109-3.755c-0.085-0.171-0.085-0.341-0.171-0.512
  	c-0.341-1.365-0.683-2.731-0.939-4.181c-0.802-3.396-1.348-6.844-1.621-10.325c-0.171-1.442-0.256-2.901-0.256-4.352
  	c-0.068-0.247-0.102-0.512-0.085-0.768c-0.085-0.939-0.085-1.963-0.085-2.901c0-1.963,0.085-3.84,0.256-5.803
  	c0.017-0.802,0.068-1.596,0.171-2.389c0.171-1.707,0.427-3.328,0.683-5.035c0.119-1.203,0.316-2.406,0.597-3.584
  	c0.256-1.365,0.512-2.731,0.853-4.096c0.427-1.536,0.853-3.157,1.28-4.693c0.085-0.085,0.085-0.171,0.171-0.256
  	c0.512-1.621,1.024-3.243,1.621-4.864c0.427-1.109,0.853-2.304,1.365-3.413c0-0.085,0.085-0.171,0.085-0.256
  	c0.512-1.109,1.024-2.304,1.621-3.413c0.913-2.116,1.971-4.164,3.157-6.144c0.256-0.512,0.512-0.939,0.768-1.365
  	c0.683-1.109,1.28-2.219,2.048-3.243c0.853-1.451,1.792-2.816,2.731-4.181c0.853-1.195,1.707-2.304,2.645-3.499
  	c0.939-1.28,1.963-2.56,3.072-3.84c1.024-1.195,2.048-2.389,3.157-3.584c1.28-1.451,2.645-2.901,4.096-4.267
  	c0.768-0.768,1.536-1.536,2.389-2.304c2.731-2.475,5.547-4.949,8.619-7.339c0.427-0.341,0.939-0.768,1.451-1.109
  	c0.085-0.085,0.171-0.171,0.256-0.171c1.451-1.109,2.901-2.219,4.437-3.243c1.707-1.195,3.499-2.389,5.291-3.499
  	c1.792-1.109,3.584-2.219,5.461-3.243c1.707-1.024,3.499-1.963,5.291-2.901c0.913-0.538,1.852-1.015,2.816-1.451
  	c1.536-0.768,3.072-1.536,4.693-2.219c1.621-0.768,3.243-1.451,4.864-2.133c4.608-1.877,9.301-3.584,14.165-5.12
  	c1.425-0.503,2.876-0.93,4.352-1.28c1.963-0.597,3.84-1.109,5.803-1.536c2.645-0.683,5.291-1.28,7.936-1.792
  	c3.584-0.768,7.253-1.365,10.923-1.877c1.28-0.171,2.56-0.341,3.84-0.512c1.707-0.171,3.499-0.341,5.205-0.512
  	C311.125,101.205,366.933,148.053,366.933,204.8z"/>
  <path style="fill:#00838F;" d="M401.067,307.2c0,0.939,0,1.963-0.085,2.901C399.019,370.005,334.848,418.133,256,418.133
  	c-2.475,0-4.949-0.085-7.339-0.171c-1.57,0-3.132-0.085-4.693-0.256c-1.707-0.085-3.413-0.256-5.035-0.427h-0.085
  	c-2.133-0.171-4.267-0.427-6.315-0.683c-0.256,0-0.597-0.085-0.853-0.085c-1.963-0.256-4.011-0.512-5.888-0.853
  	c-4.181-0.683-8.192-1.451-12.203-2.389l-1.28-0.256c-1.792-0.512-3.584-0.939-5.376-1.451h-0.085
  	c-2.048-0.512-4.011-1.109-5.973-1.792c-1.536-0.512-3.157-1.024-4.693-1.536c-2.389-0.768-4.693-1.621-6.912-2.56
  	c-1.28-0.512-2.56-1.024-3.84-1.621c-1.22-0.435-2.423-0.956-3.584-1.536c-1.963-0.853-3.925-1.792-5.803-2.816
  	c-1.963-0.939-3.84-1.963-5.632-2.987c-1.536-0.853-3.072-1.707-4.523-2.56c-1.024-0.597-2.048-1.28-3.072-1.963
  	c-3.243-2.048-6.4-4.267-9.387-6.571c-1.451-1.109-2.901-2.304-4.352-3.499c-0.324-0.179-0.606-0.41-0.853-0.683
  	c-2.475-2.133-4.864-4.267-7.083-6.485c-2.645-2.645-5.205-5.376-7.595-8.277c-2.219-2.731-4.352-5.547-6.315-8.448
  	c-0.597-0.853-1.195-1.707-1.707-2.56c-0.683-1.024-1.28-2.048-1.877-3.072c-0.683-1.109-1.28-2.133-1.877-3.243l-0.512-1.024
  	c-0.768-1.382-1.451-2.807-2.048-4.267c-0.512-1.109-1.024-2.133-1.451-3.243c-0.077-0.273-0.196-0.529-0.341-0.768
  	c-0.683-1.792-1.365-3.584-1.963-5.461c-0.154-0.358-0.265-0.725-0.341-1.109c-0.794-2.261-1.451-4.574-1.963-6.912
  	c-0.427-1.792-0.768-3.584-1.024-5.376c-0.256-1.152-0.427-2.321-0.512-3.499c-0.085-0.768-0.171-1.621-0.256-2.389
  	c-0.171-1.707-0.256-3.499-0.341-5.205c-0.085-0.939-0.085-1.963-0.085-2.901c0.026-11.733,2.406-23.339,6.997-34.133
  	c2.569-5.973,5.717-11.691,9.387-17.067c1.365-1.963,2.816-3.925,4.267-5.888c0.171-0.171,0.341-0.427,0.512-0.597
  	c1.024-1.28,2.133-2.56,3.243-3.755c0.316-0.418,0.657-0.819,1.024-1.195c0.597-0.683,1.195-1.365,1.877-2.048
  	c0.341-0.341,0.683-0.768,1.024-1.109c0.29-0.333,0.606-0.649,0.939-0.939c0.683-0.768,1.451-1.451,2.219-2.219
  	c0.512-0.512,1.024-1.024,1.536-1.451c0.683-0.683,1.365-1.28,2.048-1.877c0.469-0.478,0.981-0.905,1.536-1.28
  	c1.195-1.109,2.475-2.133,3.755-3.157c0.213-0.188,0.444-0.358,0.683-0.512c0.58-0.538,1.212-1.024,1.877-1.451
  	c1.792-1.365,3.669-2.731,5.547-4.011c0.247-0.23,0.538-0.41,0.853-0.512c0.256-0.171,0.512-0.427,0.768-0.597
  	c0.674-0.512,1.382-0.973,2.133-1.365c0.93-0.657,1.894-1.254,2.901-1.792c1.536-0.939,3.072-1.877,4.608-2.731
  	c0-0.085,0.085-0.085,0.171-0.085c0.239-0.171,0.495-0.316,0.768-0.427c1.451-0.768,2.901-1.536,4.352-2.219
  	c0.239-0.171,0.495-0.316,0.768-0.427c0.196-0.102,0.393-0.188,0.597-0.256c0.256-0.171,0.512-0.256,0.768-0.427l0.512-0.256
  	c0.256-0.085,0.427-0.256,0.683-0.341h0.085c0-0.043,0.034-0.085,0.085-0.085l0,0c0.256-0.171,0.597-0.256,0.853-0.427
  	c0.427-0.171,0.853-0.427,1.365-0.597c1.365-0.683,2.816-1.28,4.267-1.877h0.085c0.196-0.162,0.435-0.247,0.683-0.256
  	c0.341-0.171,0.597-0.341,0.939-0.512c0.119,0.009,0.239-0.017,0.341-0.085c0.546-0.282,1.118-0.503,1.707-0.683
  	c1.792-0.768,3.669-1.451,5.632-2.133c0.188-0.094,0.393-0.154,0.597-0.171c1.365-0.512,2.731-0.939,4.181-1.365
  	c1.792-0.597,3.584-1.195,5.376-1.621c0.222-0.162,0.495-0.247,0.768-0.256c0.853-0.256,1.707-0.512,2.645-0.768
  	c1.877-0.512,3.755-0.939,5.717-1.365c0.085,0,0.085,0,0.171-0.085l0.085,0.085c0.043-0.043,0.102-0.077,0.171-0.085h0.085
  	c0.171,0,0.256-0.085,0.512-0.085c0-0.043,0.034-0.085,0.085-0.085l0,0h0.085c0.085,0,0.085-0.085,0.171,0h0.085l0.085-0.085h0.256
  	c0.777-0.256,1.579-0.427,2.389-0.512c0.358-0.102,0.734-0.154,1.109-0.171c0.375-0.162,0.785-0.256,1.195-0.256
  	c0.649-0.154,1.306-0.273,1.963-0.341c2.219-0.427,4.437-0.768,6.741-1.109c0.239-0.111,0.512-0.145,0.768-0.085
  	c0.188-0.068,0.393-0.102,0.597-0.085c0.734-0.162,1.468-0.273,2.219-0.341c0.597-0.085,1.28-0.171,1.963-0.256l2.304-0.171h0.341
  	v-0.085h0.427c0.085,0,0.085-0.085,0.171,0h0.171c0.085-0.085,0.085,0,0.171,0c0.495-0.145,1.015-0.196,1.536-0.171l3.072-0.256
  	h0.085c0.171,0,0.256-0.085,0.427,0c0.102-0.068,0.222-0.094,0.341-0.085c0.768,0,1.451-0.085,2.219-0.085
  	c3.072-0.171,6.229-0.256,9.387-0.256c3.243,0,6.485,0.085,9.643,0.256c0.939,0,1.792,0.085,2.731,0.171
  	c2.901,0.171,5.803,0.427,8.704,0.768h0.512c1.707,0.256,3.584,0.512,5.205,0.768c0.512,0.017,1.033,0.068,1.536,0.171
  	c0.657,0.068,1.314,0.188,1.963,0.341h0.256l1.536,0.256c0.171,0,0.256,0.085,0.427,0.085c0.503-0.017,1.007,0.102,1.451,0.341
  	h0.171c0.179-0.017,0.35,0.017,0.512,0.085c1.749,0.247,3.49,0.589,5.205,1.024c0.154,0.034,0.299,0.094,0.427,0.171
  	c0.512,0.085,1.024,0.256,1.536,0.341c0.759,0.085,1.502,0.265,2.219,0.512c0.171,0,0.256,0.085,0.427,0.085h0.256
  	c0.068,0.009,0.128,0.034,0.171,0.085c0.094-0.009,0.188,0.017,0.256,0.085c0.205-0.017,0.41,0.017,0.597,0.085
  	c0.094-0.009,0.188,0.017,0.256,0.085c0.171,0.085,0.341,0.085,0.512,0.171c0.512,0.085,0.939,0.256,1.451,0.341h0.085
  	c0.597,0.171,1.109,0.341,1.707,0.512c3.072,0.853,5.973,1.707,8.96,2.731c2.389,0.768,4.779,1.707,7.168,2.645
  	c0.427,0.171,0.939,0.341,1.365,0.512c0.137-0.017,0.273,0.051,0.341,0.171c0.085,0,0.085,0.085,0.171,0.085
  	c0.7,0.247,1.382,0.529,2.048,0.853c5.077,2.082,10.035,4.446,14.848,7.083c2.475,1.365,4.693,2.645,6.997,4.096
  	c2.645,1.621,5.205,3.413,7.68,5.205c0.444,0.282,0.87,0.597,1.28,0.939c1.954,1.357,3.831,2.807,5.632,4.352
  	c0.128,0.06,0.247,0.154,0.341,0.256c3.209,2.688,6.289,5.538,9.216,8.533c1.195,1.195,2.389,2.389,3.499,3.669
  	c1.28,1.451,2.56,2.816,3.669,4.267c0.341,0.341,0.597,0.768,0.939,1.109c0.341,0.427,0.683,0.939,1.024,1.365
  	c0.307,0.35,0.589,0.725,0.853,1.109c1.024,1.28,1.963,2.645,2.901,4.011c3.669,5.376,6.81,11.093,9.387,17.067
  	C398.66,283.861,401.041,295.467,401.067,307.2z"/>
  <path style="fill:#00BCD4;" d="M366.933,307.2c0,0.939,0,1.963-0.085,2.901c-1.792,55.552-57.088,100.949-127.915,107.179h-0.085
  	c-2.133-0.171-4.267-0.427-6.315-0.683c-0.256,0-0.597-0.085-0.853-0.085c-1.963-0.256-4.011-0.512-5.888-0.853
  	c-4.181-0.683-8.192-1.451-12.203-2.389l-1.28-0.256c-1.792-0.512-3.584-0.939-5.376-1.451h-0.085
  	c-2.048-0.512-4.011-1.109-5.973-1.792c-1.536-0.512-3.157-1.024-4.693-1.536c-2.389-0.768-4.693-1.621-6.912-2.56
  	c-1.28-0.512-2.56-1.024-3.84-1.621c-1.22-0.435-2.423-0.956-3.584-1.536c-1.963-0.853-3.925-1.792-5.803-2.816
  	c-1.963-0.939-3.84-1.963-5.632-2.987c-1.536-0.853-3.072-1.707-4.523-2.56c-1.024-0.597-2.048-1.28-3.072-1.963
  	c-3.243-2.048-6.4-4.267-9.387-6.571c-1.451-1.109-2.901-2.304-4.352-3.499c-0.324-0.179-0.606-0.41-0.853-0.683
  	c-2.475-2.133-4.864-4.267-7.083-6.485c-2.645-2.645-5.205-5.376-7.595-8.277c-2.219-2.731-4.352-5.547-6.315-8.448
  	c-0.597-0.853-1.195-1.707-1.707-2.56c-0.683-1.024-1.28-2.048-1.877-3.072c-0.683-1.109-1.28-2.133-1.877-3.243l-0.512-1.024
  	c-0.768-1.382-1.451-2.807-2.048-4.267c-0.512-1.109-1.024-2.133-1.451-3.243c-0.077-0.273-0.196-0.529-0.341-0.768
  	c-0.683-1.792-1.365-3.584-1.963-5.461c-0.154-0.358-0.265-0.725-0.341-1.109c-0.794-2.261-1.451-4.574-1.963-6.912
  	c-0.427-1.792-0.768-3.584-1.024-5.376c-0.256-1.152-0.427-2.321-0.512-3.499c-0.085-0.768-0.171-1.621-0.256-2.389
  	c-0.171-1.707-0.256-3.499-0.341-5.205c-0.085-0.939-0.085-1.963-0.085-2.901c0.026-11.733,2.406-23.339,6.997-34.133
  	c2.569-5.973,5.717-11.691,9.387-17.067c-5.12-7.415-9.165-15.522-12.032-24.064c30.37-23.791,68.011-36.395,106.581-35.669
  	c2.987,0,5.973,0.085,8.875,0.171c1.109,0.085,2.304,0.171,3.413,0.341c1.229,0,2.458,0.085,3.669,0.256
  	c0.085,0,0.085,0,0.171,0.085h0.427c0.085,0,0.085-0.085,0.171,0h0.171c0.085-0.085,0.085,0,0.171,0
  	c48.64,4.267,89.941,27.051,111.616,58.88c3.669,5.376,6.81,11.093,9.387,17.067C364.527,283.861,366.899,295.467,366.933,307.2z"/>
  <path d="M256,426.667c-2.586,0-5.171-0.085-7.663-0.179c-1.502,0.034-3.396-0.085-5.274-0.29c-1.365-0.051-3.226-0.239-4.992-0.418
  	v-0.026c-2.603-0.196-4.625-0.444-6.562-0.683l0,0c-0.179-0.017-0.358-0.034-0.512-0.051c-0.128-0.017-0.265-0.026-0.393-0.043
  	c-2.219-0.282-4.369-0.555-6.34-0.922c-4.224-0.683-8.422-1.493-12.621-2.475l-6.434-1.647c-0.137-0.026-0.273-0.051-0.401-0.085
  	c-2.313-0.572-4.514-1.246-6.724-2.014l-4.617-1.51c-2.517-0.811-5.069-1.741-7.518-2.782c-1.57-0.632-2.85-1.161-4.13-1.758
  	c-0.777-0.23-2.304-0.887-3.789-1.63c-1.758-0.751-3.959-1.801-6.059-2.953c-1.758-0.836-3.814-1.946-5.786-3.063l-0.742-0.418
  	c-1.314-0.734-2.611-1.459-3.857-2.193c-1.161-0.683-2.321-1.451-3.49-2.227c-3.294-2.074-6.665-4.446-9.856-6.912
  	c-1.391-1.067-2.782-2.202-4.164-3.345c-0.606-0.41-1.178-0.879-1.698-1.382c-2.534-2.193-4.975-4.395-7.253-6.665
  	c-3.183-3.183-5.845-6.093-8.149-8.892c-2.406-2.961-4.693-5.973-6.801-9.088c-0.631-0.905-1.34-1.937-1.954-2.97
  	c-0.555-0.811-1.237-1.963-1.92-3.132c-0.674-1.092-1.357-2.253-2.031-3.507l-0.631-1.246c-0.759-1.357-1.587-3.081-2.313-4.855
  	c-0.666-1.382-1.118-2.364-1.519-3.405c-0.265-0.444-0.171-0.316-0.35-0.794c-0.734-1.946-1.476-3.883-2.125-5.914
  	c-0.068-0.094-0.256-0.657-0.427-1.348c-0.836-2.441-1.527-4.915-2.082-7.433c-0.452-1.894-0.845-3.951-1.135-5.999
  	c-0.222-0.905-0.452-2.475-0.572-4.062l-0.23-2.099c-0.188-1.929-0.29-3.866-0.384-5.717c-0.094-0.845-0.102-2.133-0.102-3.337
  	c0.034-12.962,2.62-25.557,7.68-37.478c2.799-6.502,6.221-12.723,10.189-18.534c1.451-2.091,2.953-4.122,4.446-6.144
  	c0.247-0.341,0.529-0.666,0.828-0.964c1.041-1.34,2.287-2.782,3.533-4.122c0-0.06,0.563-0.725,1.186-1.357
  	c0.384-0.469,1.118-1.289,1.946-2.116l1.024-1.109c0.102-0.145,0.495-0.546,0.956-0.973c0.495-0.529,1.015-1.041,1.545-1.553
  	l0.649-0.631c0.708-0.708,1.425-1.399,2.125-1.98c0.23-0.282,1.033-0.998,1.852-1.715c0.358-0.384,1.041-0.964,1.818-1.536
  	c1.22-1.092,2.492-2.133,3.78-3.157c0.162-0.145,0.444-0.367,0.785-0.614c0.785-0.683,1.621-1.306,2.492-1.869
  	c1.28-1.007,3.115-2.347,4.983-3.627c0.478-0.375,0.981-0.717,1.51-1.015c0.145-0.111,0.341-0.256,0.538-0.384
  	c0.529-0.427,1.425-1.015,2.406-1.562c1.084-0.742,2.219-1.425,3.379-2.048c1.34-0.828,2.893-1.775,4.446-2.645
  	c0.444-0.282,0.905-0.529,1.391-0.751c1.297-0.683,2.594-1.365,3.883-1.988c0.341-0.205,0.7-0.401,1.058-0.572
  	c0.034-0.017,0.068-0.034,0.102-0.051c0.597-0.358,1.229-0.674,1.894-0.922c0.051-0.034,0.119-0.068,0.179-0.094
  	c0.179-0.111,0.367-0.213,0.555-0.307c-1.553-3.695,4.198-1.647,8.277-3.686c0.384-0.188,0.785-0.358,1.195-0.486
  	c0.563-0.247,1.135-0.469,1.715-0.657c1.843-0.777,3.772-1.476,5.786-2.176v0.009c0.239-0.085,0.486-0.162,0.734-0.23
  	c1.442-0.529,2.893-0.981,4.429-1.434c1.647-0.546,3.533-1.169,5.436-1.647c0.222-0.068,0.444-0.145,0.666-0.196v-0.009l2.85-0.828
  	c1.835-0.495,3.627-0.913,5.487-1.331c0.469-0.154,0.956-0.265,1.442-0.341c0.094-0.017,0.179-0.034,0.282-0.051
  	c0.034-0.009,0.068-0.009,0.102-0.017c0.188-0.051,0.384-0.094,0.58-0.128c0.887-0.213,1.783-0.384,2.688-0.521
  	c0.29-0.06,0.589-0.119,0.887-0.162c0.563-0.154,1.143-0.265,1.724-0.333c0.768-0.162,1.545-0.282,2.321-0.358
  	c1.621-0.35,3.959-0.708,6.4-1.067v0.009c0.171-0.026,0.333-0.051,0.503-0.068c0.35-0.068,0.7-0.128,1.058-0.162
  	c0.853-0.162,1.707-0.282,2.569-0.35l1.161-0.162c0.145-0.017,0.734-0.094,0.887-0.102l1.673-0.128
  	c0.367-0.068,0.742-0.119,1.126-0.145c0.273-0.034,0.546-0.051,0.819-0.06c0.614-0.085,1.237-0.137,1.86-0.137l2.637-0.222
  	c0.674-0.137,1.306-0.162,1.869-0.128c0.922-0.051,1.408-0.068,1.911-0.068c5.564-0.341,12.954-0.341,19.49,0.009
  	c0.657,0,1.638,0.068,2.714,0.162c2.995,0.179,5.922,0.444,8.858,0.777c0.418,0.009,0.905,0.043,1.178,0.077l4.762,0.708
  	c0.794,0.043,1.596,0.154,2.372,0.307l0,0c0.213,0,0.811,0.094,1.502,0.239c0.171,0.017,0.324,0.034,0.461,0.06l1.536,0.256
  	c0.213,0.034,0.427,0.068,0.623,0.119c0.282,0.051,0.563,0.119,0.845,0.205c0.213,0.034,0.435,0.077,0.64,0.128
  	c0.017,0,0.034,0,0.06,0.009v-0.009c0.981,0.111,1.971,0.316,2.944,0.58c1.178,0.145,2.338,0.367,3.482,0.674
  	c0.188,0.051,0.41,0.119,0.64,0.205c0.145,0.034,0.282,0.068,0.427,0.102c0.887,0.111,1.997,0.358,3.115,0.708
  	c0.077,0.017,0.145,0.034,0.213,0.051l0,0c0.708,0.085,1.399,0.247,2.065,0.478c0.06,0.017,0.128,0.043,0.179,0.068
  	c0.247,0.051,0.495,0.119,0.742,0.179c0.324,0.051,0.649,0.128,0.947,0.213l0.947,0.29c3.908,1.101,6.972,2.005,10.129,3.081
  	c2.33,0.751,4.83,1.724,7.33,2.705c0.017,0,0.418,0.154,0.811,0.307c0.691,0.188,1.348,0.461,1.963,0.802
  	c0.649,0.256,1.28,0.538,1.911,0.836c4.873,1.98,10.155,4.506,15.241,7.287c2.662,1.468,5.009,2.825,7.45,4.369
  	c2.739,1.673,5.487,3.584,8.132,5.513c0.341,0.196,1.041,0.708,1.715,1.271c1.579,1.067,3.584,2.611,5.538,4.275
  	c0.171,0.119,0.324,0.247,0.478,0.375h0.009c3.413,2.859,6.724,5.931,9.83,9.105c1.254,1.254,2.586,2.594,3.823,4.019l0.887,0.998
  	c1.05,1.178,2.074,2.338,3.004,3.541c0.222,0.256,0.444,0.512,0.538,0.64l1.126,1.434c0.589,0.725,1.058,1.348,1.51,1.98
  	c0.777,0.939,1.792,2.415,2.816,3.9c4.105,6.025,7.535,12.245,10.3,18.688c5.069,11.921,7.654,24.525,7.689,37.478
  	c0,0.009,0,0.017,0,0.026c0,1.186-0.009,2.466-0.119,3.652C407.373,375.586,339.942,426.667,256,426.667z M248.619,409.421
  	c2.654,0.094,5.018,0.179,7.381,0.179c73.429,0,134.647-44.757,136.457-99.78c0.085-1.152,0.077-1.903,0.077-2.594l0,0
  	c-0.034-10.658-2.159-21.026-6.315-30.814c-2.321-5.41-5.214-10.658-8.585-15.599c-0.879-1.263-1.655-2.415-2.517-3.49l5.811-6.443
  	l-6.647,5.342l-0.836-1.101h0.009c0,0-0.375-0.444-0.734-0.905c-1.237-1.553-2.022-2.423-2.825-3.319l-0.998-1.126
  	c-1.007-1.152-2.065-2.21-3.123-3.268c-2.739-2.807-5.589-5.444-8.533-7.91c-0.179-0.137-0.358-0.282-0.538-0.427
  	c-1.604-1.365-3.251-2.645-4.966-3.84c-0.145-0.085-1.271-0.93-1.408-1.024c-2.304-1.664-4.676-3.337-7.134-4.838
  	c-2.261-1.425-4.343-2.62-6.665-3.908c-4.497-2.466-9.207-4.71-13.969-6.656c-0.862-0.393-1.254-0.563-1.673-0.708
  	c-0.375-0.137-0.725-0.29-1.067-0.469l-1.126-0.418c-2.27-0.887-4.437-1.749-6.596-2.441c-2.978-1.024-5.726-1.826-8.627-2.628
  	l-1.126-0.341l0.009-0.017c-0.401-0.085-1.135-0.256-1.365-0.316c-0.469-0.077-0.887-0.188-1.289-0.341
  	c-0.29-0.051-0.58-0.119-0.87-0.196c-0.179-0.026-0.35-0.068-0.521-0.111c-0.375-0.077-0.742-0.179-1.101-0.307
  	c-0.358-0.043-1.86-0.367-2.219-0.452c-0.299-0.077-0.708-0.188-1.143-0.333c-0.742-0.188-1.195-0.265-1.647-0.299
  	c-0.734-0.06-1.451-0.205-2.142-0.452c-0.273-0.034-0.589-0.085-0.913-0.162c-0.367-0.034-0.742-0.094-1.101-0.179
  	c-0.631-0.068-1.246-0.196-1.852-0.401l-0.606-0.102c-0.452-0.034-0.913-0.102-1.28-0.188c-0.29-0.068-0.58-0.119-0.887-0.154
  	c-0.145-0.017-1.826-0.205-1.971-0.23l-4.557-0.674c-0.307-0.009-0.631-0.026-0.811-0.043c-2.731-0.324-5.47-0.563-8.201-0.725
  	c-1.143-0.094-1.664-0.154-2.236-0.154c-6.835-0.333-12.638-0.341-18.551-0.009l-0.068-0.35c-0.333,0.128-0.666,0.222-1.007,0.307
  	v0.085c-0.196,0.009-0.393,0.017-0.597,0.034c-0.529,0.077-1.067,0.128-1.596,0.102c-0.068,0-0.137,0-0.196,0l-2.449,0.23
  	c-0.179,0.009-0.358,0.026-0.538,0.026c-0.469,0.094-0.947,0.154-1.425,0.171c-0.393,0.06-0.802,0.085-1.22,0.085l-3.371,0.341
  	c-0.905,0.094-1.28,0.154-1.647,0.23c-0.29,0.068-0.589,0.111-0.887,0.145c-0.333,0.06-0.666,0.102-0.998,0.119
  	c-0.017,0-0.034,0-0.051,0.009c-2.176,0.324-4.267,0.64-6.366,1.05c-0.998,0.137-1.289,0.179-1.57,0.256
  	c-0.282,0.068-0.555,0.119-0.845,0.162c-0.649,0.188-1.314,0.299-1.988,0.333c-0.418,0.085-0.734,0.145-1.015,0.196
  	c-0.358,0.137-0.742,0.239-1.126,0.316c-0.282,0.077-0.563,0.128-0.853,0.179c-0.512,0.154-1.033,0.247-1.562,0.307
  	c-1.57,0.341-3.089,0.7-4.608,1.109l-2.406,0.7c-0.06,0.017-0.119,0.034-0.171,0.051c-0.35,0.137-0.708,0.247-1.075,0.341
  	c-1.562,0.367-3.115,0.896-4.668,1.417c-1.519,0.461-2.697,0.819-3.883,1.263c-0.307,0.111-0.614,0.205-0.922,0.29
  	c-1.724,0.597-3.371,1.195-4.941,1.869c-0.299,0.128-0.606,0.239-0.922,0.333c-0.35,0.179-0.734,0.341-1.143,0.478l-0.469,0.256
  	c-0.367,0.179-0.742,0.341-1.126,0.461c-0.273,0.119-0.555,0.222-0.836,0.316c-1.05,0.427-2.082,0.862-3.072,1.357
  	c-0.35,0.171-0.708,0.324-1.067,0.444c-0.256,0.145-0.529,0.282-0.794,0.41c-0.358,0.205-0.725,0.384-1.109,0.546
  	c-0.026,0.009-0.051,0.017-0.077,0.034l0,0c-0.162,0.077-0.384,0.188-0.631,0.299c-0.418,0.265-0.862,0.486-1.314,0.674
  	c-0.009,0-0.009,0.009-0.017,0.009c-0.29,0.179-0.58,0.341-0.887,0.486c-1.331,0.623-2.662,1.331-3.994,2.039
  	c-0.085,0.043-0.162,0.085-0.247,0.128c-0.239,0.145-0.478,0.282-0.725,0.401c-1.297,0.734-2.603,1.536-3.908,2.33
  	c-1.34,0.742-1.997,1.152-2.628,1.604c-0.316,0.222-0.64,0.427-0.981,0.597c-0.307,0.162-0.597,0.358-0.879,0.563
  	c-0.503,0.401-0.862,0.683-1.22,0.913c-0.256,0.179-0.529,0.333-0.802,0.478c0,0,0,0-0.009,0c-1.758,1.195-3.507,2.475-5.18,3.746
  	c-0.811,0.555-1.058,0.742-1.289,0.956c-0.384,0.358-0.811,0.674-1.254,0.956c-0.964,0.819-2.091,1.707-3.14,2.679
  	c-0.316,0.299-0.657,0.563-1.015,0.811c-0.145,0.145-0.555,0.503-0.708,0.64c-0.538,0.478-1.084,0.947-1.63,1.485
  	c-0.905,0.802-1.22,1.126-1.536,1.451l-0.87,0.853c-0.341,0.333-0.683,0.649-0.99,0.998c-0.256,0.282-0.529,0.546-0.811,0.802
  	l-6.622-5.41l5.948,6.144l-0.785,0.845c-0.572,0.58-1.05,1.118-1.519,1.664c-0.171,0.222-1.015,1.178-1.203,1.382
  	c-0.973,1.05-1.946,2.167-2.842,3.294c-0.196,0.239-0.401,0.478-0.623,0.7c-1.084,1.536-2.492,3.43-3.806,5.333
  	c-3.311,4.838-6.204,10.103-8.55,15.565c-4.147,9.771-6.281,20.13-6.306,30.78c0,0.657-0.009,1.399,0.051,2.082
  	c0.102,1.946,0.179,3.584,0.341,5.154l0.247,2.33c0.085,1.041,0.196,1.809,0.358,2.56c0.333,2.176,0.623,3.703,0.99,5.222
  	c0.478,2.167,1.033,4.139,1.715,6.084c0.137,0.384,0.247,0.785,0.324,1.186c0.623,1.809,1.229,3.396,1.826,4.975
  	c0.273,0.597,0.529,1.246,0.64,1.647c-0.017-0.009,0.282,0.512,0.606,1.195l0.384,0.828c0.623,1.502,1.161,2.628,1.766,3.721
  	l0.683,1.34c0.401,0.734,0.913,1.621,1.502,2.586c0.614,1.05,1.126,1.929,1.715,2.807c0.631,1.041,1.118,1.715,1.596,2.389
  	c1.911,2.816,3.891,5.436,5.948,7.97c2.176,2.654,4.557,5.18,7.014,7.637c2.065,2.065,4.301,4.062,6.613,6.05
  	c0.06,0.051,0.119,0.111,0.179,0.162c0.179,0.128,0.358,0.256,0.529,0.401c1.382,1.135,2.756,2.27,4.139,3.337
  	c2.782,2.142,5.717,4.198,8.738,6.118c1.058,0.7,1.946,1.297,2.833,1.818l4.361,2.466c1.69,0.964,3.388,1.894,5.154,2.739
  	c2.048,1.101,3.772,1.937,5.504,2.671c1.28,0.632,2.142,1.007,3.038,1.323c1.775,0.785,2.773,1.186,3.763,1.587
  	c2.543,1.067,4.608,1.835,6.75,2.517l4.77,1.562c1.707,0.589,3.302,1.084,4.949,1.51c0.273,0.051,0.538,0.111,0.794,0.179
  	l5.931,1.536c4.139,0.964,7.953,1.69,11.938,2.338c1.835,0.333,3.678,0.563,5.436,0.794l0,0c0.222,0.026,0.435,0.051,0.614,0.068
  	c0.119,0.009,0.23,0.026,0.35,0.043c1.937,0.23,3.959,0.486,5.973,0.64c1.741,0.179,3.294,0.333,4.838,0.41
  	C246.118,409.361,247.381,409.464,248.619,409.421z"/>
  <path d="M127.317,264.533c-2.799,0.188-5.436-1.374-7.023-3.695c-5.572-8.073-9.975-16.887-13.099-26.189
  	c-0.077-0.239-0.145-0.478-0.205-0.708c-0.401-1.237-0.742-2.406-1.067-3.635c-0.017-0.051-0.034-0.094-0.043-0.145
  	c-0.085-0.247-0.162-0.503-0.23-0.759c-0.393-1.562-0.777-3.123-1.067-4.779c-0.802-3.302-1.417-7.211-1.724-11.119
  	c-0.162-1.34-0.265-2.918-0.282-4.523c-0.017-0.179-0.034-0.358-0.051-0.529h-0.009c-0.111-1.178-0.119-2.466-0.119-3.652
  	c0-2.21,0.094-4.335,0.29-6.545c-0.009-0.521,0.068-1.604,0.196-2.671c0.145-1.425,0.367-2.953,0.606-4.531
  	c0.213-1.903,0.478-3.49,0.853-5.052c0.188-1.101,0.486-2.637,0.87-4.173l1.34-4.915c0.137-0.486,0.316-0.947,0.529-1.399
  	c0.461-1.459,0.939-2.91,1.476-4.369c0.589-1.57,0.998-2.62,1.408-3.558c0.094-0.256,0.188-0.503,0.307-0.751
  	c0.819-1.801,1.306-2.859,1.852-3.874c0.751-1.809,1.98-4.198,3.362-6.494c0.017-0.111,0.375-0.717,0.734-1.314l0.572-0.947
  	c0.538-0.905,1.084-1.801,1.698-2.662c0.887-1.485,1.852-2.893,2.816-4.301c1.033-1.434,1.954-2.645,2.978-3.942
  	c0.887-1.229,2.065-2.688,3.328-4.156c1.067-1.246,2.159-2.517,3.354-3.797c1.306-1.485,2.859-3.132,4.497-4.676
  	c0.836-0.836,1.647-1.638,2.543-2.449c2.85-2.586,5.837-5.197,9.079-7.723c0.555-0.452,1.126-0.896,1.69-1.289
  	c0.119-0.085,0.239-0.171,0.358-0.247c1.493-1.143,3.004-2.287,4.591-3.345c1.681-1.178,3.61-2.458,5.53-3.652
  	c1.937-1.195,3.857-2.381,5.871-3.482c1.545-0.93,3.482-1.954,5.419-2.97c0.828-0.495,2.048-1.126,3.294-1.681
  	c1.357-0.691,3.055-1.536,4.855-2.295c1.399-0.674,3.132-1.408,4.864-2.133c5.103-2.082,9.95-3.831,14.925-5.393
  	c1.417-0.512,3.166-1.024,4.941-1.442c1.69-0.529,3.78-1.101,5.973-1.579c2.492-0.649,5.299-1.28,8.115-1.826
  	c3.618-0.777,7.492-1.408,11.375-1.954l12.689-1.331c2.142-0.179,4.403-0.273,6.579-0.358c2.679-0.102,5.308-0.188,7.842-0.188
  	c66.611,0,125.252,32.964,145.937,82.022c5.043,11.87,7.637,24.465,7.663,37.419c0,0.009,0,0.017,0,0.026
  	c0,1.186-0.009,2.475-0.119,3.652c-0.708,18.594-6.878,36.881-17.818,52.454c-1.596,2.278-4.207,3.627-6.98,3.627
  	c-0.017,0-0.026,0-0.043,0c-2.79-0.017-5.402-1.391-6.98-3.695c-0.896-1.297-1.681-2.449-2.543-3.524l4.446-4.924l-0.282-0.188
  	l-5.001,4.019l-0.777-1.024c-0.094-0.119-0.452-0.546-0.794-0.99c-1.246-1.57-2.057-2.466-2.884-3.388l-0.922-1.033
  	c-1.033-1.195-2.082-2.236-3.132-3.285c-2.739-2.807-5.589-5.444-8.533-7.91c-0.179-0.137-0.358-0.282-0.538-0.427
  	c-1.596-1.365-3.243-2.637-4.958-3.831c-0.051-0.026-1.374-1.007-1.417-1.041c-2.313-1.664-4.685-3.337-7.142-4.838
  	c-2.244-1.417-4.335-2.62-6.656-3.9c-4.497-2.466-9.207-4.71-13.969-6.656c-0.862-0.393-1.254-0.563-1.673-0.708
  	c-0.375-0.137-0.725-0.29-1.067-0.469l-1.126-0.418c-2.176-0.853-4.386-1.732-6.588-2.441c-2.987-1.024-5.726-1.826-8.636-2.637
  	l-1.084-0.35c-0.367-0.077-1.152-0.256-1.374-0.324c-0.478-0.077-0.887-0.188-1.297-0.341c-0.299-0.051-0.597-0.119-0.887-0.196
  	c-0.162-0.034-0.324-0.068-0.486-0.102c-0.393-0.077-0.777-0.188-1.152-0.324c-0.367-0.043-1.835-0.358-2.193-0.444
  	c-1.527-0.35-2.398-0.555-3.337-0.691c-0.538-0.077-1.067-0.205-1.579-0.375c-0.273-0.034-0.606-0.094-0.947-0.171
  	c-0.367-0.034-0.725-0.094-1.084-0.179c-0.623-0.068-1.246-0.196-1.852-0.401c-0.666,0-1.246-0.145-1.903-0.299
  	c-0.29-0.068-0.58-0.119-0.887-0.154c-0.196-0.017-1.954-0.222-2.159-0.256c-1.604-0.299-3.226-0.512-4.924-0.666
  	c-2.995-0.35-5.726-0.589-8.457-0.751c-1.143-0.094-1.664-0.154-2.236-0.154c-6.835-0.333-12.638-0.341-18.551-0.009l-0.068-0.35
  	c-0.333,0.128-0.666,0.222-1.007,0.307v0.085c-0.196,0.009-0.393,0.017-0.597,0.034c-0.529,0.077-1.067,0.128-1.587,0.102
  	c-0.068,0-0.137,0-0.196,0l-2.441,0.23c-0.179,0.009-0.367,0.026-0.546,0.026c-0.469,0.094-0.947,0.154-1.425,0.171
  	c-0.393,0.06-0.802,0.085-1.22,0.085l-3.371,0.341c-0.887,0.094-1.246,0.154-1.604,0.23c-0.324,0.068-0.649,0.128-0.981,0.162
  	c-0.316,0.051-0.631,0.094-0.947,0.111c-0.128,0.017-0.265,0.034-0.393,0.051c-1.946,0.205-3.866,0.529-5.769,0.956
  	c-0.324,0.068-0.64,0.128-0.964,0.162c-0.29,0.034-0.572,0.077-0.853,0.154c-0.282,0.068-0.555,0.119-0.845,0.162
  	c-0.649,0.188-1.314,0.299-1.988,0.333c-0.427,0.085-0.759,0.154-1.041,0.205c-0.324,0.111-0.649,0.205-0.981,0.282
  	c-0.239,0.068-0.486,0.119-0.725,0.162c-0.29,0.068-0.58,0.119-0.879,0.154c-0.077,0.009-0.162,0.026-0.239,0.043l0,0
  	c-1.818,0.393-3.558,0.785-5.299,1.254l-2.406,0.7c-0.06,0.017-0.119,0.034-0.171,0.051c-0.35,0.137-0.708,0.247-1.075,0.341
  	c-1.562,0.367-3.115,0.896-4.668,1.417c-1.63,0.444-2.679,0.785-3.712,1.195c-0.358,0.145-0.725,0.256-1.092,0.358
  	c-1.724,0.597-3.371,1.195-4.941,1.869c-0.299,0.128-0.606,0.239-0.922,0.333c-0.307,0.154-0.879,0.393-1.195,0.512
  	c-0.495,0.282-1.024,0.521-1.562,0.7c-0.265,0.111-0.538,0.213-0.819,0.299c-1.05,0.427-2.082,0.862-3.072,1.357
  	c-0.35,0.179-0.708,0.324-1.075,0.452c-0.188,0.111-0.393,0.213-0.597,0.307c-0.435,0.265-0.896,0.495-1.374,0.683
  	c-0.162,0.085-0.384,0.188-0.623,0.299c-0.418,0.265-0.862,0.495-1.323,0.683c-0.009,0-0.009,0.009-0.017,0.009
  	c-0.29,0.179-0.58,0.341-0.887,0.486c-1.331,0.623-2.671,1.331-4.002,2.039c-0.222,0.128-0.179,0.094-0.145,0.068
  	c-0.265,0.171-0.538,0.324-0.828,0.461c-1.365,0.768-2.739,1.613-4.113,2.449c-1.135,0.623-1.792,1.033-2.423,1.476
  	c-0.316,0.222-0.64,0.427-0.981,0.597c-0.316,0.171-0.614,0.358-0.905,0.58c-0.452,0.367-0.828,0.657-1.186,0.905
  	c-0.256,0.179-0.529,0.333-0.802,0.478c-0.068,0.043-0.145,0.094-0.213,0.145c-1.647,1.058-3.234,2.21-4.762,3.439
  	c-0.247,0.196-0.495,0.375-0.759,0.546c-0.265,0.171-0.512,0.358-0.742,0.572c-0.384,0.358-0.811,0.674-1.254,0.956
  	c-1.186,0.896-2.108,1.673-2.97,2.517c-0.358,0.358-0.759,0.683-1.186,0.964c-0.137,0.137-0.529,0.486-0.674,0.606
  	c-0.666,0.589-1.169,1.024-1.664,1.519c-0.905,0.802-1.22,1.126-1.536,1.451l-0.887,0.87c-0.341,0.333-0.683,0.649-0.99,0.998
  	c-0.23,0.265-0.486,0.512-0.751,0.742l-6.682-5.35l5.982,6.101l-0.853,0.905c-0.614,0.563-0.87,0.845-1.092,1.143
  	c-0.205,0.282-0.435,0.546-0.683,0.802c-0.196,0.265-0.785,0.947-1.015,1.186c-0.939,0.973-1.809,1.988-2.637,3.046
  	c-0.222,0.29-0.461,0.555-0.717,0.811c-1.084,1.536-2.492,3.43-3.806,5.333C132.727,263.168,130.108,264.533,127.317,264.533z
  	 M368.068,225.399c3.413,2.859,6.724,5.931,9.83,9.105c1.263,1.263,2.603,2.611,3.84,4.045l0.785,0.879
  	c0.444,0.486,0.879,0.973,1.289,1.451c5.231-10.377,8.192-21.777,8.644-33.51c0.085-1.109,0.077-1.86,0.077-2.543l0,0
  	c-0.034-10.667-2.159-21.026-6.315-30.814C368.162,131.166,315.836,102.4,256,102.4c-2.347,0-4.779,0.085-7.125,0.162
  	c-1.963,0.077-3.968,0.162-5.897,0.324l-11.785,1.237c-3.413,0.478-6.878,1.041-10.257,1.766c-2.645,0.521-5.12,1.067-7.595,1.715
  	c-2.065,0.452-3.729,0.905-5.461,1.434c-1.673,0.41-2.833,0.751-3.959,1.152c-4.821,1.527-9.242,3.123-13.815,4.983
  	c-1.417,0.597-2.918,1.229-4.429,1.946c-1.775,0.759-3.149,1.451-4.523,2.133c-1.033,0.469-1.69,0.811-2.338,1.186
  	c-1.988,1.058-3.635,1.911-5.197,2.85c-2.048,1.126-3.703,2.15-5.367,3.183c-1.647,1.024-3.302,2.125-4.89,3.234
  	c-1.536,1.024-2.842,2.031-4.139,3.029c-0.196,0.154-0.401,0.29-0.606,0.427c-0.034,0.017-0.068,0.043-0.102,0.068
  	c-0.009,0.009-0.828,0.657-0.836,0.666c-3.004,2.338-5.658,4.676-8.226,7.006c-0.708,0.631-1.306,1.237-1.911,1.835
  	c-1.613,1.545-2.799,2.799-3.908,4.062c-1.169,1.263-2.125,2.381-3.081,3.49c-0.981,1.126-1.86,2.219-2.662,3.319
  	c-1.041,1.331-1.818,2.347-2.603,3.43c-0.725,1.067-1.562,2.261-2.313,3.541c-0.162,0.282-0.341,0.546-0.538,0.802
  	c-0.367,0.486-0.666,1.015-0.973,1.545l-0.631,1.05c-0.102,0.205-0.597,1.084-0.717,1.28c-0.99,1.655-1.877,3.379-2.645,5.146
  	c-0.674,1.314-0.99,2.031-1.306,2.714l-0.188,0.418c-0.085,0.247-0.179,0.486-0.29,0.717c-0.324,0.708-0.606,1.451-0.879,2.176
  	c-0.777,2.091-1.246,3.584-1.724,5.086c-0.094,0.307-0.205,0.597-0.341,0.887l-1.024,3.772c-0.247,0.99-0.469,2.185-0.691,3.379
  	c-0.282,1.22-0.418,2.031-0.495,2.842c-0.009,0.154-0.145,1.05-0.171,1.195c-0.188,1.297-0.384,2.551-0.521,3.874
  	c-0.085,0.691-0.119,1.203-0.128,1.715c-0.171,2.27-0.247,3.908-0.247,5.623c0,0.691-0.009,1.451,0.051,2.142
  	c0,0.06,0.009,0.119,0.009,0.179c0.068,0.444,0.111,0.896,0.111,1.348c0,1.126,0.068,2.253,0.196,3.371
  	c0.273,3.345,0.751,6.383,1.451,9.335c0.29,1.587,0.563,2.697,0.836,3.772c0.085,0.23,0.162,0.469,0.222,0.708
  	c0.29,1.109,0.589,2.133,0.956,3.243c0.068,0.205,0.128,0.41,0.179,0.623c0,0.009,0,0.017,0.009,0.026
  	c1.323,3.874,2.901,7.646,4.745,11.298c0.213-0.23,0.427-0.461,0.64-0.691c0.316-0.393,0.649-0.777,0.99-1.152
  	c0.811-1.024,1.707-1.971,2.679-2.85l0.691-0.794c0.119-0.162,0.495-0.546,0.947-0.964c0.495-0.529,1.015-1.041,1.545-1.553
  	l0.657-0.64c0.708-0.708,1.425-1.399,2.125-1.98c0.171-0.222,0.922-0.896,1.681-1.562c0.469-0.486,1.135-1.058,1.886-1.613
  	c1.246-1.178,2.56-2.278,3.934-3.285c0.23-0.196,0.478-0.375,0.717-0.555c0.666-0.563,1.357-1.101,2.082-1.587
  	c1.775-1.425,3.627-2.773,5.538-4.011c0.427-0.333,0.887-0.64,1.365-0.896c0.154-0.119,0.35-0.265,0.546-0.401
  	c0.538-0.427,1.425-1.015,2.406-1.562c1.084-0.742,2.219-1.425,3.379-2.048c1.186-0.742,2.816-1.741,4.446-2.645
  	c0.589-0.367,1.22-0.691,1.877-0.964c0.708-0.418,2.022-1.109,3.396-1.775c0.341-0.205,0.7-0.401,1.058-0.572
  	c0.034-0.017,0.068-0.034,0.102-0.051c0.606-0.367,1.246-0.683,1.903-0.93c0.171-0.094,0.358-0.188,0.555-0.29
  	c0.29-0.162,0.589-0.307,0.896-0.452c0.29-0.154,0.589-0.299,0.896-0.418c0.324-0.162,0.691-0.333,1.075-0.486
  	c1.425-0.691,2.927-1.314,4.429-1.929c0.205-0.085,0.427-0.171,0.64-0.23c0.401-0.196,0.802-0.384,1.22-0.546
  	c0.708-0.341,1.434-0.631,2.185-0.879c1.843-0.777,3.772-1.476,5.786-2.176v0.009c0.213-0.077,0.435-0.145,0.657-0.205
  	c1.57-0.606,3.174-1.118,4.796-1.545c1.374-0.478,3.251-1.092,5.146-1.57c0.222-0.068,0.444-0.145,0.666-0.196v-0.009l2.85-0.828
  	c1.826-0.495,3.61-0.913,5.47-1.323c0.478-0.162,0.964-0.273,1.459-0.35c0.128-0.026,0.247-0.043,0.375-0.068
  	c0.196-0.051,0.393-0.094,0.597-0.137c0.887-0.213,1.775-0.384,2.679-0.521c0.29-0.068,0.589-0.119,0.887-0.162
  	c0.563-0.154,1.143-0.265,1.724-0.333c0.597-0.128,1.195-0.222,1.801-0.307c2.398-0.521,4.821-0.913,7.262-1.169l0,0
  	c0.06-0.009,0.128-0.017,0.188-0.026c0.333-0.068,0.666-0.119,0.998-0.154c0.862-0.162,1.724-0.282,2.594-0.358l1.161-0.162
  	c0.145-0.017,0.734-0.094,0.887-0.102l1.673-0.128c0.35-0.068,0.7-0.111,1.067-0.137c0.171-0.017,0.341-0.034,0.512-0.051
  	c0.171-0.017,0.341-0.026,0.503-0.026c0.572-0.077,1.152-0.119,1.732-0.119l2.628-0.222c0.691-0.145,1.306-0.188,1.911-0.128
  	c0.896-0.051,1.382-0.068,1.877-0.068c5.581-0.341,12.954-0.341,19.49,0.009c0.657,0,1.638,0.068,2.714,0.162
  	c3.123,0.188,6.195,0.461,9.259,0.828c1.801,0.154,3.738,0.41,5.683,0.742c0.742,0.051,1.485,0.154,2.227,0.299l0,0
  	c0.205,0,0.777,0.085,1.442,0.222c1.092,0.111,2.176,0.316,3.234,0.606c0.316,0.043,0.631,0.111,0.947,0.179
  	c0.026,0,0.043,0,0.06,0.009v-0.009c1.067,0.128,2.125,0.35,3.157,0.657c1.169,0.196,2.278,0.444,3.379,0.7
  	c0.051,0.009,0.887,0.196,0.922,0.205c0.896,0.111,2.014,0.358,3.123,0.708c0.068,0.017,0.145,0.034,0.205,0.051
  	c0.009,0,0.009,0,0.017,0c0.691,0.085,1.374,0.247,2.031,0.478c0.068,0.017,0.137,0.043,0.196,0.068
  	c0.247,0.06,0.503,0.128,0.742,0.188c0.316,0.051,0.623,0.119,0.913,0.196l1.033,0.307c3.866,1.092,6.929,1.988,10.078,3.072
  	c2.381,0.759,4.932,1.766,7.484,2.765l1.459,0.546l-0.009,0.009c0.162,0.06,0.307,0.128,0.469,0.196
  	c0.137,0.051,0.265,0.111,0.393,0.179c0.759,0.29,1.502,0.606,2.227,0.956c4.873,1.98,10.155,4.506,15.241,7.287
  	c2.662,1.468,5.001,2.825,7.45,4.361c2.748,1.69,5.495,3.601,8.132,5.513c0.35,0.205,1.067,0.734,1.758,1.306
  	c1.527,1.024,3.541,2.569,5.504,4.241C367.753,225.143,367.906,225.271,368.068,225.399L368.068,225.399z"/>
  <g>
  	<path style="fill:red;" d="M230.4,294.4c1.126,20.011-14.131,37.171-34.133,38.4c-4.42-0.009-8.781-0.973-12.8-2.816
  		c-19.652-10.496-27.076-34.944-16.572-54.596c3.763-7.04,9.532-12.809,16.572-16.572c4.019-1.843,8.38-2.807,12.8-2.816
  		C216.269,257.229,231.526,274.389,230.4,294.4z"/>
  	<path style="fill:#FDD834;" d="M349.867,294.4c1.126,20.011-14.131,37.171-34.133,38.4c-4.42-0.009-8.781-0.973-12.8-2.816
  		c-19.652-10.496-27.076-34.944-16.572-54.596c3.763-7.04,9.532-12.809,16.572-16.572c4.019-1.843,8.38-2.807,12.8-2.816
  		C335.736,257.229,350.993,274.389,349.867,294.4z"/>
  </g>
  <g>
  	<path style="fill:red;" d="M204.8,294.4c0.418,15.002-7.902,28.885-21.333,35.584c-19.652-10.496-27.076-34.944-16.572-54.596
  		c3.763-7.04,9.532-12.809,16.572-16.572C196.898,265.515,205.218,279.398,204.8,294.4z"/>
  	<path style="fill:#FFEB3A;" d="M324.267,294.4c0.418,15.002-7.902,28.885-21.333,35.584
  		c-19.652-10.496-27.076-34.944-16.572-54.596c3.763-7.04,9.532-12.809,16.572-16.572
  		C316.365,265.515,324.685,279.398,324.267,294.4z"/>
  </g>
  <path d="M196.267,341.333c-23.526,0-42.667-21.06-42.667-46.933s19.14-46.933,42.667-46.933s42.667,21.06,42.667,46.933
  	C238.933,320.273,219.793,341.333,196.267,341.333z M196.267,264.533c-14.114,0-25.6,13.397-25.6,29.867
  	c0,16.469,11.486,29.867,25.6,29.867c14.114,0,25.6-13.397,25.6-29.867C221.867,277.931,210.381,264.533,196.267,264.533z"/>
  <path d="M196.267,307.2c-4.71,0-8.533-3.814-8.533-8.533v-8.533c0-4.719,3.823-8.533,8.533-8.533s8.533,3.814,8.533,8.533v8.533
  	C204.8,303.386,200.977,307.2,196.267,307.2z"/>
  <path d="M315.733,341.333c-23.526,0-42.667-21.06-42.667-46.933s19.14-46.933,42.667-46.933c23.526,0,42.667,21.06,42.667,46.933
  	C358.4,320.273,339.26,341.333,315.733,341.333z M315.733,264.533c-14.114,0-25.6,13.397-25.6,29.867
  	c0,16.469,11.486,29.867,25.6,29.867c14.114,0,25.6-13.397,25.6-29.867C341.333,277.931,329.847,264.533,315.733,264.533z"/>
  <path d="M315.733,307.2c-4.719,0-8.533-3.814-8.533-8.533v-8.533c0-4.719,3.814-8.533,8.533-8.533c4.719,0,8.533,3.814,8.533,8.533
  	v8.533C324.267,303.386,320.452,307.2,315.733,307.2z"/>
  <circle style="fill:#FFEB3A;" cx="256" cy="366.933" r="17.067"/>
  <path d="M256,392.533c-14.114,0-25.6-11.486-25.6-25.6s11.486-25.6,25.6-25.6c14.114,0,25.6,11.486,25.6,25.6
  	S270.114,392.533,256,392.533z M256,358.4c-4.702,0-8.533,3.823-8.533,8.533s3.831,8.533,8.533,8.533
  	c4.71,0,8.533-3.823,8.533-8.533S260.71,358.4,256,358.4z"/>
  <g>
  	<path style="fill:#D84315;" d="M110.933,307.2c0,0.939,0,1.963,0.085,2.901c-19.132,6.75-32.478,24.149-34.048,44.373
  		c-7.262-3.072-15.07-4.642-22.955-4.608c-3.755-0.026-7.501,0.35-11.179,1.109l-0.171-1.109
  		c-0.017-11.887,2.756-23.603,8.107-34.219c9.668-19.49,27.17-33.946,48.128-39.765c6.204-1.724,12.595-2.671,19.029-2.816
  		C113.34,283.861,110.967,295.467,110.933,307.2z"/>
  	<path style="fill:#D84315;" d="M117.931,170.667c-0.512,1.109-0.939,2.304-1.365,3.413c-0.597,1.621-1.109,3.243-1.621,4.864
  		c-0.085,0.085-0.085,0.171-0.171,0.256c-0.427,1.536-0.853,3.157-1.28,4.693c-0.341,1.365-0.597,2.731-0.853,4.096
  		c-0.282,1.178-0.478,2.381-0.597,3.584c-0.316,1.664-0.546,3.345-0.683,5.035c-0.102,0.794-0.154,1.587-0.171,2.389
  		c-0.171,1.963-0.256,3.84-0.256,5.803c0,0.939,0,1.963,0.085,2.901c-19.132,6.75-32.478,24.149-34.048,44.373
  		c-7.262-3.072-15.07-4.642-22.955-4.608c-3.755-0.026-7.501,0.35-11.179,1.109l-0.171-1.109
  		C42.675,205.645,76.126,171.511,117.931,170.667z"/>
  	<path style="fill:#D84315;" d="M469.333,349.867l-0.171,1.109c-3.678-0.759-7.424-1.135-11.179-1.109
  		c-7.885-0.034-15.693,1.536-22.955,4.608c-1.57-20.224-14.916-37.623-34.048-44.373c0.085-0.939,0.085-1.963,0.085-2.901
  		c-0.026-11.733-2.406-23.339-6.997-34.133c6.434,0.145,12.826,1.092,19.029,2.816c20.958,5.82,38.46,20.275,48.128,39.765
  		C466.577,326.263,469.35,337.98,469.333,349.867z"/>
  	<path style="fill:#D84315;" d="M469.333,247.467l-5.632,0.256c-1.877-0.171-3.755-0.256-5.717-0.256
  		c-7.885-0.034-15.693,1.536-22.955,4.608c-1.57-20.224-14.916-37.623-34.048-44.373c0.085-0.939,0.085-1.963,0.085-2.901
  		c-0.026-11.733-2.406-23.339-6.997-34.133C435.874,171.511,469.325,205.645,469.333,247.467z"/>
  </g>
  <path d="M76.971,363.008c-1.126,0-2.261-0.222-3.328-0.674c-6.229-2.637-12.894-4.045-19.593-3.934
  	c-3.345,0.026-6.391,0.299-9.489,0.93c-2.278,0.469-4.676-0.017-6.596-1.348c-1.92-1.331-3.209-3.396-3.558-5.709l-0.171-1.109
  	c-0.068-0.418-0.102-0.853-0.102-1.28c-0.026-13.158,3.098-26.325,9.02-38.076c10.701-21.581,30.199-37.692,53.47-44.151
  	c6.852-1.903,13.961-2.961,21.111-3.123c2.97,0.026,5.632,1.34,7.262,3.738s1.929,5.47,0.794,8.132
  	c-4.164,9.788-6.298,20.156-6.323,30.814c0,0.691-0.009,1.434,0.051,2.125c0.341,3.874-1.98,7.501-5.658,8.789
  	c-15.932,5.632-27.068,20.147-28.382,36.992c-0.213,2.739-1.732,5.205-4.079,6.63C80.051,362.59,78.515,363.008,76.971,363.008z
  	 M54.357,341.333c5.376,0,10.692,0.649,15.881,1.937c4.454-16.973,16.222-31.258,32.205-38.852
  	c0.222-7.262,1.254-14.404,3.072-21.367c-1.451,0.307-2.901,0.657-4.326,1.058c-18.611,5.154-34.193,18.039-42.769,35.337
  	c-3.465,6.878-5.726,14.319-6.69,21.922c0.785-0.026,1.562-0.026,2.347-0.034C54.17,341.333,54.263,341.333,54.357,341.333z"/>
  <g>
  	<path style="fill:#FDD834;" d="M99.584,384c0,18.859-20.395,34.133-45.568,34.133c-9.02,0.102-17.929-2.005-25.941-6.144
  		C16.828,407.066,9.276,396.254,8.533,384c0-15.957,14.592-29.355,34.304-33.024c3.678-0.759,7.424-1.135,11.179-1.109
  		c7.885-0.034,15.693,1.536,22.955,4.608c8.823,3.507,16.034,10.163,20.224,18.688C98.748,376.568,99.567,380.262,99.584,384z"/>
  	<path style="fill:#FDD834;" d="M98.901,275.883c-20.958,5.82-38.46,20.275-48.128,39.765c-7.953-0.341-15.735-2.441-22.784-6.144
  		C16.768,304.606,9.25,293.82,8.533,281.6c0-15.957,14.592-29.355,34.304-33.024c3.678-0.759,7.424-1.135,11.179-1.109
  		c7.885-0.034,15.693,1.536,22.955,4.608c8.764,3.533,15.923,10.146,20.139,18.603C97.886,272.35,98.483,274.091,98.901,275.883z"/>
  </g>
  <g>
  	<path style="fill:#FFEB3A;" d="M99.584,384c0,18.859-20.395,34.133-45.568,34.133c-9.02,0.102-17.929-2.005-25.941-6.144
  		c-1.63-3.413-2.475-7.142-2.475-10.923c0-15.957,14.592-29.355,34.304-33.024c3.678-0.759,7.424-1.135,11.179-1.109
  		c7.885-0.034,15.693,1.536,22.955,4.608c1.109,0.512,2.133,1.024,3.157,1.621C98.748,376.568,99.567,380.262,99.584,384z"/>
  	<path style="fill:#FFEB3A;" d="M98.901,275.883c-20.958,5.82-38.46,20.275-48.128,39.765c-7.953-0.341-15.735-2.441-22.784-6.144
  		c-1.562-3.396-2.381-7.1-2.389-10.837c0-15.957,14.592-29.355,34.304-33.024c3.678-0.759,7.424-1.135,11.179-1.109
  		c7.885-0.034,15.693,1.536,22.955,4.608c1.058,0.444,2.082,0.956,3.072,1.536C97.886,272.35,98.483,274.091,98.901,275.883z"/>
  </g>
  <g>
  	<path style="fill:#FDD834;" d="M412.416,384c0,18.859,20.395,34.133,45.568,34.133c9.02,0.102,17.929-2.005,25.941-6.144
  		c11.247-4.924,18.799-15.735,19.541-27.989c0-15.957-14.592-29.355-34.304-33.024c-3.678-0.759-7.424-1.135-11.179-1.109
  		c-7.885-0.034-15.693,1.536-22.955,4.608c-8.823,3.507-16.034,10.163-20.224,18.688C413.252,376.568,412.433,380.262,412.416,384z"
  		/>
  	<path style="fill:#FDD834;" d="M413.099,275.883c20.958,5.82,38.46,20.275,48.128,39.765c7.953-0.341,15.735-2.441,22.784-6.144
  		c11.221-4.898,18.739-15.684,19.456-27.904c0-15.957-14.592-29.355-34.304-33.024c-3.678-0.759-7.424-1.135-11.179-1.109
  		c-7.885-0.034-15.693,1.536-22.955,4.608c-8.764,3.533-15.923,10.146-20.139,18.603
  		C414.114,272.35,413.517,274.091,413.099,275.883z"/>
  </g>
  <g>
  	<path style="fill:#FFEB3A;" d="M412.416,384c0,18.859,20.395,34.133,45.568,34.133c9.02,0.102,17.929-2.005,25.941-6.144
  		c1.63-3.413,2.475-7.142,2.475-10.923c0-15.957-14.592-29.355-34.304-33.024c-3.678-0.759-7.424-1.135-11.179-1.109
  		c-7.885-0.034-15.693,1.536-22.955,4.608c-1.109,0.512-2.133,1.024-3.157,1.621C413.252,376.568,412.433,380.262,412.416,384z"/>
  	<path style="fill:#FFEB3A;" d="M413.099,275.883c20.958,5.82,38.46,20.275,48.128,39.765c7.953-0.341,15.735-2.441,22.784-6.144
  		c1.562-3.396,2.381-7.091,2.389-10.837c0-15.957-14.592-29.355-34.304-33.024c-3.678-0.759-7.424-1.135-11.179-1.109
  		c-7.885-0.034-15.693,1.536-22.955,4.608c-1.058,0.444-2.082,0.956-3.072,1.536C414.114,272.35,413.517,274.091,413.099,275.883z"
  		/>
  </g>
  <path d="M54.016,426.667C24.235,426.667,0,407.526,0,384c0-19.866,16.973-36.89,41.276-41.421c4.105-0.845,8.431-1.237,12.8-1.246
  	c8.841,0.043,17.852,1.732,26.223,5.282c15.445,5.402,26.556,19.9,27.793,36.762c0.017,0.205,0.026,0.418,0.026,0.623
  	C108.117,407.526,83.849,426.667,54.016,426.667z M53.751,358.4c-3.123,0-6.187,0.316-9.19,0.93
  	c-16,2.978-27.494,13.346-27.494,24.67c0,13.875,16.922,25.6,36.949,25.6c19.925,0,36.787-11.554,37.026-25.293
  	c-0.862-9.95-7.467-18.475-16.896-21.786c-6.733-2.833-13.397-4.233-20.096-4.122C53.948,358.4,53.854,358.4,53.751,358.4z"/>
  <path d="M76.971,260.608c-1.126,0-2.261-0.222-3.328-0.674c-6.229-2.637-12.894-3.874-19.593-3.934
  	c-3.388-0.026-6.409,0.29-9.481,0.93c-2.295,0.461-4.668-0.017-6.596-1.348c-1.92-1.34-3.209-3.396-3.567-5.709l-0.171-1.109
  	c-0.068-0.427-0.102-0.862-0.102-1.297c0-46.114,37.521-84.395,83.627-85.333c2.927,0.034,5.7,1.408,7.313,3.866
  	c1.613,2.466,1.835,5.581,0.606,8.252c-0.316,0.683-0.589,1.417-0.853,2.116c-0.768,2.065-1.22,3.499-1.673,4.924
  	c-0.094,0.307-0.213,0.623-0.358,0.939l-1.075,3.942c-0.247,0.99-0.469,2.185-0.691,3.379c-0.282,1.22-0.418,2.031-0.495,2.842
  	c-0.367,2.142-0.555,3.533-0.674,4.932c-0.094,0.828-0.137,1.34-0.145,1.852c-0.171,2.261-0.247,3.908-0.247,5.624
  	c0,0.683-0.009,1.425,0.051,2.108c0.358,3.891-1.963,7.535-5.658,8.841c-15.932,5.623-27.076,20.147-28.382,36.992
  	c-0.213,2.731-1.732,5.205-4.079,6.63C80.051,260.19,78.515,260.608,76.971,260.608z M54.357,238.933
  	c5.376,0,10.692,0.649,15.881,1.929c4.454-16.973,16.222-31.266,32.213-38.844c0.043-1.246,0.128-2.475,0.23-3.738
  	c0-0.538,0.077-1.621,0.205-2.688c0.137-1.673,0.401-3.644,0.768-5.606c0.043-0.828,0.307-2.423,0.691-3.985
  	c0.188-1.101,0.486-2.637,0.87-4.173l0.324-1.186c-28.177,5.948-50.133,29.508-53.803,58.325c0.777-0.034,1.57-0.034,2.338-0.034
  	C54.17,238.933,54.263,238.933,54.357,238.933z"/>
  <path d="M50.773,324.181c-0.154,0-0.307,0-0.461-0.017C21.632,322.62,0,304.307,0,281.6c0-19.857,16.973-36.89,41.276-41.412
  	c4.087-0.853,8.516-1.195,12.8-1.254c8.841-0.188,17.852,1.741,26.223,5.282c12.8,4.838,22.938,15.838,26.803,29.312
  	c0.631,2.193,0.358,4.54-0.751,6.528c-1.109,1.988-2.97,3.447-5.163,4.062c-18.603,5.154-34.193,18.039-42.769,35.337
  	C56.977,322.355,54.007,324.181,50.773,324.181z M53.743,256c-3.14,0-6.195,0.307-9.173,0.93
  	c-16.009,2.987-27.503,13.346-27.503,24.67c0,12.032,12.339,22.374,28.919,24.977c9.481-16.137,24.047-28.706,41.327-35.738
  	c-3.166-4.855-7.834-8.687-13.363-10.778c-6.537-2.765-12.877-3.951-19.9-4.062C53.948,256,53.845,256,53.743,256z"/>
  <path d="M435.029,363.008c-1.545,0-3.072-0.418-4.437-1.246c-2.338-1.425-3.857-3.891-4.079-6.622
  	c-1.306-16.845-12.45-31.369-28.382-37.001c-3.678-1.289-5.999-4.915-5.658-8.789c0.068-0.7,0.06-1.451,0.06-2.15
  	c-0.034-10.633-2.159-21.001-6.315-30.788c-1.135-2.671-0.845-5.734,0.794-8.132c1.613-2.398,4.412-3.738,7.262-3.738
  	c7.159,0.171,14.268,1.229,21.12,3.123c23.27,6.46,42.761,22.571,53.487,44.203c5.897,11.691,9.02,24.858,9.003,38.016
  	c0,0.427-0.034,0.845-0.094,1.254l-0.171,1.109c-0.35,2.313-1.63,4.395-3.558,5.734c-1.928,1.34-4.326,1.835-6.596,1.357
  	c-3.115-0.64-6.255-1.015-9.412-0.93c-0.077,0-0.154,0-0.213,0c-6.784,0-13.303,1.323-19.465,3.934
  	C437.291,362.786,436.156,363.008,435.029,363.008z M409.549,304.418c15.983,7.595,27.75,21.871,32.205,38.852
  	c5.282-1.306,10.598-1.911,16.256-1.937c0.734,0,1.502,0.009,2.253,0.026c-0.956-7.603-3.217-15.036-6.656-21.871
  	c-8.61-17.34-24.192-30.225-42.795-35.379c-1.434-0.401-2.884-0.759-4.343-1.058C408.303,290.005,409.327,297.156,409.549,304.418z"
  	/>
  <path d="M457.984,426.667c-29.833,0-54.101-19.14-54.101-42.667c1.263-17.485,12.373-31.983,28.322-37.572
  	c7.859-3.354,16.469-5.094,25.813-5.094c4.215,0.017,8.593,0.401,12.868,1.28C495.027,347.11,512,364.134,512,384
  	C512,407.526,487.765,426.667,457.984,426.667z M457.822,358.4c-6.784,0-13.303,1.323-19.465,3.934
  	c-10.044,3.541-16.691,12.22-17.434,22.289c0.026,13.252,16.981,24.977,37.06,24.977c20.028,0,36.949-11.725,36.949-25.6
  	c0-11.324-11.494-21.692-27.324-24.636c-3.277-0.674-6.673-1.05-9.566-0.964C457.967,358.4,457.89,358.4,457.822,358.4z"/>
  <path d="M435.029,260.608c-1.545,0-3.072-0.418-4.437-1.246c-2.338-1.425-3.857-3.891-4.079-6.63
  	c-1.306-16.845-12.45-31.369-28.382-36.992c-3.678-1.297-5.999-4.924-5.658-8.798c0.068-0.691,0.06-1.451,0.06-2.142
  	c-0.034-10.641-2.159-21.001-6.315-30.788c-1.135-2.671-0.845-5.717,0.785-8.124c1.613-2.398,4.241-3.703,7.245-3.755
  	c46.097,0.939,83.618,39.219,83.627,85.333c0,4.565-3.593,8.32-8.149,8.525l-5.632,0.247c-0.384,0.017-0.785,0.009-1.161-0.026
  	c-1.681-0.154-3.362-0.179-5.154-0.213c-6.724,0-13.244,1.323-19.405,3.934C437.291,260.386,436.156,260.608,435.029,260.608z
  	 M409.549,202.018c15.983,7.586,27.75,21.871,32.205,38.852c5.282-1.306,10.598-1.971,16.256-1.937c0.759,0,1.51,0.009,2.244,0.034
  	c-3.661-28.817-25.617-52.369-53.786-58.325C408.303,187.605,409.327,194.748,409.549,202.018z"/>
  <path d="M461.227,324.181c-3.234,0-6.204-1.826-7.646-4.745c-8.585-17.289-24.166-30.174-42.769-35.337
  	c-2.193-0.606-4.053-2.065-5.163-4.062c-1.109-1.98-1.382-4.335-0.751-6.519c3.857-13.474,14.003-24.474,27.119-29.44
  	c8.038-3.405,16.657-5.146,26.001-5.146c2.202,0,4.326,0.094,6.46,0.29c2.185,0.179,4.42,0.538,6.613,1.041
  	C495.027,244.71,512,261.743,512,281.6c0,22.707-21.632,41.02-50.313,42.564C461.534,324.181,461.372,324.181,461.227,324.181z
  	 M424.695,270.839c17.271,7.031,31.838,19.601,41.327,35.738c16.58-2.603,28.911-12.945,28.911-24.977
  	c0-11.324-11.494-21.683-27.332-24.636c-1.758-0.401-3.174-0.623-4.608-0.742c-1.758-0.162-3.422-0.188-5.222-0.222
  	c-6.724,0-13.244,1.323-19.405,3.934C432.623,262.11,427.887,265.967,424.695,270.839z"/>
  <path d="M196.267,187.733c-4.71,0-8.533-3.823-8.533-8.533v-8.533c0-9.412,7.654-17.067,17.067-17.067h8.533v-8.533
  	c0-9.412,7.654-17.067,17.067-17.067h8.533c4.71,0,8.533,3.823,8.533,8.533s-3.823,8.533-8.533,8.533H230.4v8.533
  	c0,9.412-7.654,17.067-17.067,17.067H204.8v8.533C204.8,183.91,200.977,187.733,196.267,187.733z"/>
  <path d="M315.733,187.733c-4.719,0-8.533-3.823-8.533-8.533v-8.533h-8.533c-9.412,0-17.067-7.654-17.067-17.067v-8.533h-8.533
  	c-4.719,0-8.533-3.823-8.533-8.533s3.814-8.533,8.533-8.533h8.533c9.412,0,17.067,7.654,17.067,17.067v8.533h8.533
  	c9.412,0,17.067,7.654,17.067,17.067v8.533C324.267,183.91,320.452,187.733,315.733,187.733z"/>
  </g>
  </g>
  <g id="bullet">
      <circle cx="5" cy="5" r="5" style="fill:red"/>
      <circle cx="6" cy="3" r="1" style="fill:pink"/>
  </g>
  
  <g id="monsterbullet">
        <circle cx="5" cy="5" r="10" style="fill:blue"/>
        <circle cx="6" cy="3" r="2" style="fill:white"/>
  </g>

  </defs>

  <rect width="100%" height="100%" style="fill:url(#background_pattern);stroke:orange;stroke-width:4" />

  <rect x="20" y="20" width="600" height="560" style="fill:black;stroke:red;stroke-width:5" />

  
  <g transform="translate(640, 100)">
      <text x="70" y="0"
       style="fill:rgb(222, 232, 247);font-size:35px;font-weight:bold;text-anchor:middle">
        Score:
      </text>
      <rect x="0" y="10" width="140" height="35" style="fill:white;stroke:black" />
      <text id="score" x="70" y="36"
       style="fill:red;font-size:25px;text-anchor:middle">0</text>
   </g>
   
   <g transform="translate(640, 200)">
          <text x="70" y="0"
           style="fill:rgb(222, 232, 247);font-size:35px;font-weight:bold;text-anchor:middle">
            Time:
          </text>
          <rect x="0" y="10" width="140" height="35" style="fill:white;stroke:black"/>
          <rect x="0" y ="10" width = "140" height = "35" style="fill:yellow" id = "timeblock"/>
          <text id="time" x="70" y="36"
           style="fill:red;font-size:25px;text-anchor:middle">0s</text>
   </g>

   <g transform="translate(640, 300)">
      <text x="70" y="0"
       style="fill:rgb(222, 232, 247);font-size:15px;font-weight:bold;text-anchor:middle">
        Monsters Remaining:
      </text>
      <rect x="0" y="10" width="140" height="35" style="fill:white;stroke:black" />
      <text id="mremaining" x="70" y="36"
       style="fill:red;font-size:25px;text-anchor:middle">0</text>
   </g>
   
   
   <g transform="translate(640, 400)">
      <text x="70" y="0"
       style="fill:rgb(222, 232, 247);font-size:15px;font-weight:bold;text-anchor:middle">
        Bullets Remaining:
      </text>
      <rect x="0" y="10" width="140" height="35" style="fill:white;stroke:black" />
      <text id="bremaining" x="70" y="36"
       style="fill:red;font-size:25px;text-anchor:middle">0</text>
   </g>
   <g transform="translate(640, 500)">
         <text x="70" y="0"
          style="fill:rgb(222, 232, 247);font-size:15px;font-weight:bold;text-anchor:middle">
           Tresures Remaining:
         </text>
         <rect x="0" y="10" width="140" height="35" style="fill:white;stroke:black" />
         <text id="tremaining" x="70" y="36"
          style="fill:red;font-size:25px;text-anchor:middle">0</text>
   </g>
     


  <g style="clip-path:url(#gameareaclip)">
    <g transform="translate(20,20)">
      <g id="gamearea" transform="translate(0,0)" width="600" height="560">
        <rect x="0" y="0" width="600" height="560" style="fill:url(#bckgcolor)" />
	
	 		

        <g id="platforms">
            <!-- 60 -->
            <rect style="fill:url(#platform_pattern)" width="60" height="20" x="0" y="60"/>

            <!-- 80 -->
            <rect style="fill:url(#platform_pattern)" width="20" height="20" x="40" y="80"/>

            <!-- 100 -->
            <rect style="fill:url(#platform_pattern)" width="40" height="20" x="40" y="100"/>
	    <rect style="fill:url(#platform_pattern)" width="400" height="20" x="120" y="100"/>
            <rect style="fill:url(#platform_pattern)" width="40" height="20" x="80" y="100"/>
		
            
            <!-- 120 -->
            <rect style="fill:url(#platform_pattern)" width="20" height="20" x="60" y="120"/>
            <rect style="fill:url(#platform_pattern)" width="40" height="20" x="220" y="120"/>

            <!-- 140 -->
            <rect style="fill:url(#platform_pattern)" width="40" height="20" x="220" y="140"/>
            <rect style="fill:url(#platform_pattern)" width="40" height="20" x="560" y="140"/>

            <!-- 160 -->
            <rect style="fill:url(#platform_pattern)" width="120" height="20" x="180" y="160"/>
            <rect style="fill:url(#platform_pattern)" width="60" height="20" x="540" y="160"/>

            <!-- 180 -->
            <rect style="fill:url(#platform_pattern)" width="20" height="20" x="0" y="180"/>
            <rect style="fill:url(#platform_pattern)" width="20" height="20" x="100" y="180"/>
            <rect style="fill:url(#platform_pattern)" width="20" height="20" x="380" y="180"/>
            <rect style="fill:url(#platform_pattern)" width="80" height="20" x="520" y="180"/>

            <!-- 200 -->
            <rect style="fill:url(#platform_pattern)" width="20" height="20" x="0" y="200"/>
            <rect style="fill:url(#platform_pattern)" width="40" height="20" x="80" y="200"/>
            <rect style="fill:url(#platform_pattern)" width="80" height="20" x="360" y="200"/>

            <!-- 220 -->
            <rect style="fill:url(#platform_pattern)" width="120" height="20" x="0" y="220"/>
            <rect style="fill:url(#platform_pattern)" width="140" height="20" x="320" y="220"/>
            <rect type="disappearing" style="fill:url(#platform_pattern)" opacity="1.0" width="40" height="20" x="120" y="220"/>

            <!-- 240 -->
            <rect style="fill:url(#platform_pattern)" width="20" height="20" x="240" y="240"/>
            <rect style="fill:url(#platform_pattern)" width="160" height="20" x="340" y="240"/>

            <!-- 260 -->
            <rect style="fill:url(#platform_pattern)" width="60" height="20" x="220" y="260"/>

            <!-- 280 -->
            <rect style="fill:url(#platform_pattern)" width="100" height="20" x="200" y="280"/>
            <rect style="fill:url(#platform_pattern)" width="40" height="20" x="560" y="280"/>

            <!-- 300 -->
            <rect style="fill:url(#platform_pattern)" width="100" height="20" x="120" y="300"/>
            <rect style="fill:url(#platform_pattern)" width="40" height="20" x="280" y="300"/>
            <rect style="fill:url(#platform_pattern)" width="100" height="20" x="500" y="300"/>

            <!-- 320 -->
            <rect style="fill:url(#platform_pattern)" width="40" height="20" x="0" y="320"/>
            <rect style="fill:url(#platform_pattern)" width="60" height="20" x="280" y="320"/>
            <rect style="fill:url(#platform_pattern)" width="20" height="20" x="380" y="320"/>

            <!-- 340 -->
            <rect style="fill:url(#platform_pattern)" width="60" height="20" x="0" y="340"/>
            <rect style="fill:url(#platform_pattern)" width="20" height="20" x="320" y="340"/>
            <rect style="fill:url(#platform_pattern)" width="60" height="20" x="380" y="340"/>

            <!-- 360 -->
            <rect style="fill:url(#platform_pattern)" width="120" height="20" x="0" y="360"/>
            <rect style="fill:url(#platform_pattern)" width="20" height="20" x="320" y="360"/>
            <rect style="fill:url(#platform_pattern)" width="60" height="20" x="380" y="360"/>
            <rect  type="disappearing" style="fill:url(#platform_pattern)" opacity="1.0" width="60" height="20" x="440" y="360"/>

            <!-- 380 -->
            <rect style="fill:url(#platform_pattern)" width="100" height="20" x="0" y="380"/>
            <rect style="fill:url(#platform_pattern)" width="20" height="20" x="220" y="380"/>
            <rect style="fill:url(#platform_pattern)" width="20" height="20" x="580" y="380"/>

            <!-- 400 -->
            <rect style="fill:url(#platform_pattern)" width="80" height="20" x="180" y="400"/>
            <rect style="fill:url(#platform_pattern)" width="40" height="20" x="560" y="400"/>
            

            <!-- 420 -->
            <rect style="fill:url(#platform_pattern)" width="100" height="20" x="160" y="420"/>
            <rect style="fill:url(#platform_pattern)" width="60" height="20" x="540" y="420"/>
            <rect type="disappearing" style="fill:url(#platform_pattern)" opacity="1.0" width="100" height="20" x="260" y="420"/>

            <!-- 440 -->
            <rect style="fill:url(#platform_pattern)" width="100" height="20" x="140" y="440"/>
            <rect style="fill:url(#platform_pattern)" width="20" height="20" x="440" y="440"/>
            <rect style="fill:url(#platform_pattern)" width="60" height="20" x="500" y="440"/>

            <!-- 460 -->
            <rect style="fill:url(#platform_pattern)" width="60" height="20" x="120" y="460"/>
            <rect style="fill:url(#platform_pattern)" width="60" height="20" x="400" y="460"/>

            <!-- 480 -->
            <rect style="fill:url(#platform_pattern)" width="40" height="20" x="0" y="480"/>
            <rect style="fill:url(#platform_pattern)" width="60" height="20" x="380" y="480"/>

            <!-- 500 -->
            <rect style="fill:url(#platform_pattern)" width="60" height="20" x="0" y="500"/>
            <rect style="fill:url(#platform_pattern)" width="20" height="20" x="260" y="500"/>

            <!-- 520 -->
            <rect style="fill:url(#platform_pattern)" width="80" height="20" x="0" y="520"/>
            <rect style="fill:url(#platform_pattern)" width="20" height="20" x="140" y="520"/>
            <rect style="fill:url(#platform_pattern)" width="80" height="20" x="240" y="520"/>
            <rect style="fill:url(#platform_pattern)" width="20" height="20" x="500" y="520"/>

            <!-- the floor -->
            <rect style="fill:url(#platform_pattern)" width="600" height="20" x="0" y="540"/>
        </g>
	  
	 <g id = "teleportA" transform="translate(560,260)"  x = "560" y = "260" width="40" height="20">
	  	<ellipse cx="20.5" cy="9" rx="19.5" ry="1"
	  		transform="translate(-0.545455 9.63636) translate(-0.363636 0.181818)"
	  		 style="fill:rgb(128,255,255);stroke-width:1"/>
	  	<polygon points="2,10.134 3,11.866 1,11.866"
	  		transform="matrix(1 0 0 8.0829 0 -77.9119) translate(0 0.0674825)"
	  		 style="fill:rgb(195,248,249);stroke-width:1"/>
	  	<polygon points="2,10.134 3,11.866 1,11.866"
	  		transform="matrix(1 0 0 8.0829 18 -78.9119) translate(17.8182 0.202448)"
	  		 style="fill:rgb(195,248,249);stroke-width:1"/>
	  	<polygon points="7.5,10.067 8,10.933 7,10.933"
	  		transform="matrix(1 0 0 19.6299 0 -195.614)"
	  		 style="fill:rgb(195,248,249);stroke-width:1"/>
	  	<polygon points="18.5,9.06699 19,9.93301 18,9.93301"
	  		transform="matrix(1 0 0 21.9393 0 -198.923) translate(-1.81818 -0.0497239) translate(1.45455 0.0165746) translate(0.727273 0) translate(0.363636 0.00828732)"
	  		
	  		 style="fill:rgb(195,248,249);stroke-width:1"/>
	  	<polygon points="30.5,25.067 31,25.933 30,25.933"
	  		transform="matrix(1 0 0 1.1547 0 -3.94486)"
	  		 style="fill:rgb(195,248,249);stroke-width:1"/>
	  	<polygon points="11.5,10.567 12,11.433 11,11.433"
	  		transform="matrix(1 0 0 18.4752 0 -192.227)"
	  		 style="fill:rgb(195,248,249);stroke-width:1"/>
	  	<polygon points="14.5,11.567 15,12.433 14,12.433"
	  		transform="matrix(1 0 0 16.1658 0 -181.99)"
	  		 style="fill:rgb(195,248,249);stroke-width:1"/>
	  	<polygon points="14.5,11.567 15,12.433 14,12.433"
	  		transform="matrix(1 0 0 16.1658 6 -182.99) translate(1.63636 0.0337413) translate(3.09091 0.0337413)"
	  		
	  		 style="fill:rgb(195,248,249);stroke-width:1"/>
	  	<polygon points="14.5,11.567 15,12.433 14,12.433"
	  		transform="matrix(1 0 0 16.1658 6 -182.99) translate(12 0.0449884) translate(1.81818 0)"
	  		
	  		 style="fill:rgb(195,248,249);stroke-width:1"/>
	  	<polygon points="14.5,11.567 15,12.433 14,12.433"
	  		transform="matrix(1 0 0 16.1658 6 -182.99) translate(14.5455 0.0224942) translate(0.909091 0)"
	  		
	  		 style="fill:rgb(195,248,249);stroke-width:1"/>
	  	<polygon points="14.5,11.567 15,12.433 14,12.433"
	  		transform="matrix(1 0 0 16.1658 6 -182.99) translate(4.36364 0) translate(1.09091 0.0224942) translate(1.09091 0.0224942)"
	  		
	  		 style="fill:rgb(195,248,249);stroke-width:1"/>
	  	<polygon points="14.5,11.567 15,12.433 14,12.433"
	  		transform="matrix(1 0 0 16.1658 6 -182.99) translate(4.90909 0.112471) translate(-20.9091 -0.0787296)"
	  		
	  		 style="fill:rgb(195,248,249);stroke-width:1"/>
	  	<polygon points="14.5,11.567 15,12.433 14,12.433"
	  		transform="matrix(1 0 0 16.1658 6 -182.99) translate(10.3636 0.0449884) translate(-4 -0.0337413) translate(2.72727 0.0787296)"
	  		
	  		 style="fill:rgb(195,248,249);stroke-width:1"/>
	  	<polygon points="14.5,11.567 15,12.433 14,12.433"
	  		transform="matrix(1 0 0 16.1658 6 -182.99) translate(8.36364 0) translate(0.181818 0) translate(2.54545 0.0674825)"
	  		
	  		 style="fill:rgb(195,248,249);stroke-width:1"/>
	  	<polygon points="9.5,9.06699 10,9.93301 9,9.93301"
	  		transform="matrix(1 0 0 19.6299 0 -176.984)"
	  		 style="fill:rgb(195,248,249);stroke-width:1"/>
	  	<polygon points="9.5,9.06699 10,9.93301 9,9.93301"
	  		transform="matrix(1 0 0 19.6299 11 -175.984)"
	  		 style="fill:rgb(195,248,249);stroke-width:1"/>
	  	<polygon points="9.5,9.06699 10,9.93301 9,9.93301"
	  		transform="matrix(1 0 0 19.6299 11 -175.984) translate(-5.09091 0.0370492)"
	  		 style="fill:rgb(195,248,249);stroke-width:1"/>
	  	<polygon points="9.5,9.06699 10,9.93301 9,9.93301"
	  		transform="matrix(1 0 0 19.6299 11 -175.984) translate(-14.7273 -0.0185246)"
	  		 style="fill:rgb(195,248,249);stroke-width:1"/>
	  	<polygon points="9.5,9.06699 10,9.93301 9,9.93301"
	  		transform="matrix(1 0 0 19.6299 11 -175.984) translate(1.45455 0.0277869)"
	  		 style="fill:rgb(195,248,249);stroke-width:1"/>
	  	<polygon points="9.5,9.06699 10,9.93301 9,9.93301"
	  		transform="matrix(1 0 0 19.6299 11 -175.984) translate(2.72727 -0.0277869)"
	  		 style="fill:rgb(195,248,249);stroke-width:1"/>
	  	<polygon points="9.5,9.06699 10,9.93301 9,9.93301"
	  		transform="matrix(1 0 0 19.6299 11 -175.984) translate(2.90909 -0.0370492) translate(4 0.0555738) translate(0.727273 0.00926231)"
	  		
	  		 style="fill:rgb(195,248,249);stroke-width:1"/>
	  	<polygon points="9.5,9.06699 10,9.93301 9,9.93301"
	  		transform="matrix(1 0 0 19.6299 11 -175.984) translate(-4.72727 0.00926231) translate(0.727273 -0.0370492) translate(0.727273 0.0277869)"
	  		
	  		 style="fill:rgb(195,248,249);stroke-width:1"/>
	  	<polygon points="9.5,9.06699 10,9.93301 9,9.93301"
	  		transform="matrix(1 0 0 19.6299 11 -175.984) translate(2.72727 0.0277869) translate(-10.1818 -0.0370492)"
	  		
	  		 style="fill:rgb(195,248,249);stroke-width:1"/>
	  	<polygon points="9.5,9.06699 10,9.93301 9,9.93301"
	  		transform="matrix(1 0 0 19.6299 11 -175.984) translate(9.63636 -0.0555738) translate(3.09091 0.0463115)"
	  		
	  		 style="fill:rgb(195,248,249);stroke-width:1"/>
	  </g>
	  
	 <g id = "teleportB" transform="translate(180,140)" x = "180" y = "140" width="40" height="20">
	 	  	<ellipse cx="20.5" cy="9" rx="19.5" ry="1"
	 	  		transform="translate(-0.545455 9.63636) translate(-0.363636 0.181818)"
	 	  		 style="fill:rgb(128,255,255);stroke-width:1"/>
	 	  	<polygon points="2,10.134 3,11.866 1,11.866"
	 	  		transform="matrix(1 0 0 8.0829 0 -77.9119) translate(0 0.0674825)"
	 	  		 style="fill:rgb(195,248,249);stroke-width:1"/>
	 	  	<polygon points="2,10.134 3,11.866 1,11.866"
	 	  		transform="matrix(1 0 0 8.0829 18 -78.9119) translate(17.8182 0.202448)"
	 	  		 style="fill:rgb(195,248,249);stroke-width:1"/>
	 	  	<polygon points="7.5,10.067 8,10.933 7,10.933"
	 	  		transform="matrix(1 0 0 19.6299 0 -195.614)"
	 	  		 style="fill:rgb(195,248,249);stroke-width:1"/>
	 	  	<polygon points="18.5,9.06699 19,9.93301 18,9.93301"
	 	  		transform="matrix(1 0 0 21.9393 0 -198.923) translate(-1.81818 -0.0497239) translate(1.45455 0.0165746) translate(0.727273 0) translate(0.363636 0.00828732)"
	 	  		
	 	  		 style="fill:rgb(195,248,249);stroke-width:1"/>
	 	  	<polygon points="30.5,25.067 31,25.933 30,25.933"
	 	  		transform="matrix(1 0 0 1.1547 0 -3.94486)"
	 	  		 style="fill:rgb(195,248,249);stroke-width:1"/>
	 	  	<polygon points="11.5,10.567 12,11.433 11,11.433"
	 	  		transform="matrix(1 0 0 18.4752 0 -192.227)"
	 	  		 style="fill:rgb(195,248,249);stroke-width:1"/>
	 	  	<polygon points="14.5,11.567 15,12.433 14,12.433"
	 	  		transform="matrix(1 0 0 16.1658 0 -181.99)"
	 	  		 style="fill:rgb(195,248,249);stroke-width:1"/>
	 	  	<polygon points="14.5,11.567 15,12.433 14,12.433"
	 	  		transform="matrix(1 0 0 16.1658 6 -182.99) translate(1.63636 0.0337413) translate(3.09091 0.0337413)"
	 	  		
	 	  		 style="fill:rgb(195,248,249);stroke-width:1"/>
	 	  	<polygon points="14.5,11.567 15,12.433 14,12.433"
	 	  		transform="matrix(1 0 0 16.1658 6 -182.99) translate(12 0.0449884) translate(1.81818 0)"
	 	  		
	 	  		 style="fill:rgb(195,248,249);stroke-width:1"/>
	 	  	<polygon points="14.5,11.567 15,12.433 14,12.433"
	 	  		transform="matrix(1 0 0 16.1658 6 -182.99) translate(14.5455 0.0224942) translate(0.909091 0)"
	 	  		
	 	  		 style="fill:rgb(195,248,249);stroke-width:1"/>
	 	  	<polygon points="14.5,11.567 15,12.433 14,12.433"
	 	  		transform="matrix(1 0 0 16.1658 6 -182.99) translate(4.36364 0) translate(1.09091 0.0224942) translate(1.09091 0.0224942)"
	 	  		
	 	  		 style="fill:rgb(195,248,249);stroke-width:1"/>
	 	  	<polygon points="14.5,11.567 15,12.433 14,12.433"
	 	  		transform="matrix(1 0 0 16.1658 6 -182.99) translate(4.90909 0.112471) translate(-20.9091 -0.0787296)"
	 	  		
	 	  		 style="fill:rgb(195,248,249);stroke-width:1"/>
	 	  	<polygon points="14.5,11.567 15,12.433 14,12.433"
	 	  		transform="matrix(1 0 0 16.1658 6 -182.99) translate(10.3636 0.0449884) translate(-4 -0.0337413) translate(2.72727 0.0787296)"
	 	  		
	 	  		 style="fill:rgb(195,248,249);stroke-width:1"/>
	 	  	<polygon points="14.5,11.567 15,12.433 14,12.433"
	 	  		transform="matrix(1 0 0 16.1658 6 -182.99) translate(8.36364 0) translate(0.181818 0) translate(2.54545 0.0674825)"
	 	  		
	 	  		 style="fill:rgb(195,248,249);stroke-width:1"/>
	 	  	<polygon points="9.5,9.06699 10,9.93301 9,9.93301"
	 	  		transform="matrix(1 0 0 19.6299 0 -176.984)"
	 	  		 style="fill:rgb(195,248,249);stroke-width:1"/>
	 	  	<polygon points="9.5,9.06699 10,9.93301 9,9.93301"
	 	  		transform="matrix(1 0 0 19.6299 11 -175.984)"
	 	  		 style="fill:rgb(195,248,249);stroke-width:1"/>
	 	  	<polygon points="9.5,9.06699 10,9.93301 9,9.93301"
	 	  		transform="matrix(1 0 0 19.6299 11 -175.984) translate(-5.09091 0.0370492)"
	 	  		 style="fill:rgb(195,248,249);stroke-width:1"/>
	 	  	<polygon points="9.5,9.06699 10,9.93301 9,9.93301"
	 	  		transform="matrix(1 0 0 19.6299 11 -175.984) translate(-14.7273 -0.0185246)"
	 	  		 style="fill:rgb(195,248,249);stroke-width:1"/>
	 	  	<polygon points="9.5,9.06699 10,9.93301 9,9.93301"
	 	  		transform="matrix(1 0 0 19.6299 11 -175.984) translate(1.45455 0.0277869)"
	 	  		 style="fill:rgb(195,248,249);stroke-width:1"/>
	 	  	<polygon points="9.5,9.06699 10,9.93301 9,9.93301"
	 	  		transform="matrix(1 0 0 19.6299 11 -175.984) translate(2.72727 -0.0277869)"
	 	  		 style="fill:rgb(195,248,249);stroke-width:1"/>
	 	  	<polygon points="9.5,9.06699 10,9.93301 9,9.93301"
	 	  		transform="matrix(1 0 0 19.6299 11 -175.984) translate(2.90909 -0.0370492) translate(4 0.0555738) translate(0.727273 0.00926231)"
	 	  		
	 	  		 style="fill:rgb(195,248,249);stroke-width:1"/>
	 	  	<polygon points="9.5,9.06699 10,9.93301 9,9.93301"
	 	  		transform="matrix(1 0 0 19.6299 11 -175.984) translate(-4.72727 0.00926231) translate(0.727273 -0.0370492) translate(0.727273 0.0277869)"
	 	  		
	 	  		 style="fill:rgb(195,248,249);stroke-width:1"/>
	 	  	<polygon points="9.5,9.06699 10,9.93301 9,9.93301"
	 	  		transform="matrix(1 0 0 19.6299 11 -175.984) translate(2.72727 0.0277869) translate(-10.1818 -0.0370492)"
	 	  		
	 	  		 style="fill:rgb(195,248,249);stroke-width:1"/>
	 	  	<polygon points="9.5,9.06699 10,9.93301 9,9.93301"
	 	  		transform="matrix(1 0 0 19.6299 11 -175.984) translate(9.63636 -0.0555738) translate(3.09091 0.0463115)"
	 	  		
	 	  		 style="fill:rgb(195,248,249);stroke-width:1"/>
	</g>

        <g id="monsters"/>
        <g id="bullets"/>
	<g id="monsterbullets"/>
	<g id="treasures"/>
	<g  id ="exit" x = "0" y = "0" visibility = "hidden">
	<animateTransform attributeType="xml"
	                    attributeName="transform"
	                    type="rotate"
	                    from="0 20 20"
	                    to="360 20 20"
	                    dur="2s"
	                    repeatCount="indefinite"/>
	    <g transform = "scale(0.08)">
	    		<path d="M242.995,2.008C108.801,2.008,0,110.798,0,244.991c0,62.957,23.938,120.327,63.22,163.497    c-26.7-35.008-42.727-78.424-42.727-125.67c0-115.311,94.31-208.769,210.678-208.769c116.339,0,210.667,93.458,210.667,208.769    c0,96.197-65.766,176.99-155.096,201.174C400.057,463.371,486,364.256,486,244.991C486,110.798,377.194,2.008,242.995,2.008z" fill="#52cceb"/>
	    		<path d="M290.047,336.266c43.275-22.49,65.66-73.368,50.761-121.618c-16.769-54.298-74.383-84.729-128.699-67.943    c-54.293,16.75-84.718,74.389-67.949,128.688c7.864,25.468,24.715,45.681,46.008,58.245    c-15.186-10.813-27.079-26.39-32.988-45.517c-14.41-46.633,12.062-96.255,59.15-110.793c47.082-14.544,96.897,11.49,111.33,58.134    C339.687,274.388,323.175,315.305,290.047,336.266z" fill="#52cceb"/>
	    		<path d="M411.735,340.131c30.197-81.32-11.233-171.724-92.553-201.927c-4.157-1.559-8.361-2.861-12.564-4.058    c65.17,30.588,96.943,106.974,71.207,176.278c-27.126,73.006-107.745,110.396-180.108,83.515    c-51.718-19.221-85.044-66.104-90.03-117.95c-4.052,67.225,35.732,132.01,102.128,156.672    C291.11,462.88,381.514,421.461,411.735,340.131z" fill="#52cceb"/>
	    		<path d="M59.763,247.647c-3.158,37.262,10.451,72.024,34.535,96.967c-8.017-23.657-11.099-50.55-7.917-78.47    c7.362-64.545,45.961-115.913,93.901-132.401C117.757,135.442,65.17,183.879,59.763,247.647z" fill="#52cceb"/>
	    		<path d="M242.995,223.243c23.664,0,42.838,19.18,42.838,42.843c0,23.67-19.174,42.844-42.838,42.844    c-23.658,0-42.843-19.174-42.843-42.844C200.151,242.422,219.337,223.243,242.995,223.243z" fill="#52cceb"/>
	    </g>
	</g>
        <g id="player" > 
         <text x ="22" y= "-5" style = "fill:white" text-anchor = "middle" id = "uid">name</text>
            <g id = "playerrole">
             
	      <path transform = "translate(32,7) scale(0.08)" d="M308.825,131.046c-2.676-2.502-10.443-3.693-46.46-3.693c-10.666,0-24.149,0.103-41.277,0.337  
	      c-9.926,0.136-17.367,0.234-22.692,0.234c-3.138,0-5.194-0.027-6.478-0.098l-1.175,0.005c-1.768,0.022-3.519,0.054-5.249,0.054
	      c-14.762,0-28.876-1.229-39.243-15.909c-3.28-7.207-0.446-20.881,1.077-28.256l0.451-2.143c3.133-15.616,3.65-31.4-13.576-41.07 
	      c-5.504-3.095-10.971-3.737-14.8-1.762c-3.699,1.898-5.896,5.776-6.543,11.514c-0.185,1.692-0.071,3.552,0.071,5.771 
	      c0.451,7.544,1.202,20.173-10.568,38.324c-15.121,16.567-23.013,31.867-25.172,36.382c-7.533,4.4-14.305,7.8-20.864,11.085 
	      l-0.315,0.163c-7.006,3.519-14.25,7.169-22.257,11.922l-23.769,0.37l0,0H0v97.207v7.169h9.992h22.197l15.904,4.645  
	      c24.405,12.782,54.51,15.463,75.467,15.463c12.929,0,21.903-1.023,22.779-1.142c1.284,0.098,2.491,0.141,3.617,0.141  
	      c7.8,0,14.511-2.29,19.945-6.821c9.203-7.691,12.096-19.57,12.945-24.623c8.072-3.247,13.413-8.169,15.828-14.637   
	      c2.959-7.93,0.669-16.051-1.104-20.445c7.071-3.894,11.476-9.105,13.081-15.48c3.285-13.032-6.543-25.428-6.668-25.58
	      c-0.109-0.114-0.223-0.245-0.332-0.375c4.242-0.533,11.253-1.371,19.281-2.344l11.161-1.354  
	      c35.164-4.221,64.605-7.789,68.853-8.61c7.359-1.425,12.455-6.206,13.315-12.488C317.021,139.471,314.095,134.011,308.825,131.046  
	      z" style = "fill:rgb(255,255,0);stroke:black;stroke-width:2"/>
	      <circle cx="21" cy="16" r="19" transform="translate(-2 1.2)" style="fill:rgb(255,255,0);stroke:rgb(0,0,0);stroke-width:1"/>
	      <ellipse cx="27.5" cy="22" transform="translate(10 -20) rotate(20)" rx="6" ry="2.5" style="fill:rgb(0,0,0);stroke:rgb(0,0,0);stroke-width:1"/>
	      <circle cx="29.5" cy="18" r="1.5" transform="translate(1.5 -7)" style="fill:rgb(255,255,255);stroke-width:1"/>
            </g>
        </g>
      </g>
    
        <!--add your highscore table here-->
	<g id="highscoretable" transform="translate(40,40)" visibility = "hidden">
	  <rect width="520" height="520"
	   style="fill:white;stroke:red;stroke-width:2"/>
	  <text x="260" y="40"
	   style="fill:red;font-size:30px;font-weight:bold;text-anchor:middle">
	    High Score Table
	  </text>
	  <text id="highscoretext" y="45"
	   style="font-size: 20px;font-weight:bold"/>
	  <g id = "nmodebutton" onclick = "top.reload()">
	  <rect x = "175" y ="475" width = "200" height = "50" style = "fill:gray;stroke:black;strokef-width:1"></rect>
	  <text x="230" y="505" style="font-size:15px;stoke:red;stroke-width:4;font-weight:bold">Start again?</text>
	  </g>
	</g>
    </g>
  </g>
  
  
  <g id="startingscreen" transform="translate(20,20)" visibility = "visible">
   <rect width="760" height="560" style="fill:rgb(178, 164, 168);stroke:red;stroke-width:5"/>
  	  <text x="380" y="60"
  	   style="fill:rgb(145, 109, 62);font-size:40px;font-weight:bold;text-anchor:middle;font-style:italic;">
  	    ESCAPE FROM THE DUNGEON!
  	  </text>
  	  <text x="8" y="170" style="font-size: 30px;font-weight:bold">
	   Try your best to collect all the treasures and escape!</text> 
	  <text x="8" y="220" style="font-size: 30px;font-weight:bold">
	   Press <tspan style ="fill:rgb(145, 109, 62)">A</tspan> and <tspan style ="fill:rgb(145, 109, 62)">D</tspan> to move right and left, and <tspan style ="fill:rgb(145, 109, 62)">W</tspan> to jump. </text>
	  <text x="8" y="270" style="font-size: 30px;font-weight:bold">
	   Whenever you meet a monster, press<tspan style ="fill:rgb(145, 109, 62)"> SPACEBAR</tspan> </text>
	  <text x="8" y="320" style="font-size: 30px;font-weight:bold">
	    to kill them and prove that you are the chosen one!</text> 
	  
	  
	  
	  <g id = "nmodebutton" onclick = "top.load(evt,false)">
	      <rect x = "150" y ="450" width = "200" height = "50" style = "fill:gray;stroke:black;strokef-width:1"></rect>
	      <text x="195" y="480" style="font-size:15px;stoke:red;stroke-width:4;font-weight:bold"> NORMAL MODE</text>
	  </g>
	  <g id = "zmodebutton" onclick = "top.load(evt,true)">
	      <rect x = "405" y ="450" width = "200" height = "50" style = "fill:gray;stroke:black;stroke-width:1"></rect>
	      <text x="455" y="480" style="font-size:15px;stoke:red;stroke-width:4;font-weight:bold"> ZOOM MODE</text>
	  </g>
	  
	  <text x = "450" y = "550"> DESIGNED BY: CHEN, Liang-yu 8367</text>
  </g>
  <g id = "exit_msg" transform = "translate(230,20)" visibility = "hidden">
    	<rect width="200" height="35" style="fill:gray;stroke:black" />
         <text  x="100" y="27" style="fill:red;font-size:25px;text-anchor:middle">EXIT APPEARS!!</text>
  </g>
</svg>

